<?xml version="1.0" encoding="UTF-8"?>
<svg version="1.1" xmlns="http://www.w3.org/2000/svg" width="100" height="115">
<path d="M0 0 C0.04404252 2.08053845 0.07546955 4.16134653 0.1015625 6.2421875 C0.12041504 7.40089355 0.13926758 8.55959961 0.15869141 9.75341797 C-0.06954254 14.42273341 -1.03041538 16.40523967 -4 20 C-8.90187312 23.61804921 -14.12573856 23.81335928 -20 23 C-22.98536082 22.07761277 -25.6148436 21.04024408 -28 19 C-28.70260448 17.34816188 -29.37286461 15.68194038 -30 14 C-30.00364563 14.74502274 -30.00729126 15.49004547 -30.01104736 16.25764465 C-30.0489039 23.27658677 -30.10572909 30.29505846 -30.18390274 37.31364918 C-30.22342365 40.92209005 -30.25558898 44.53028523 -30.27099609 48.13891602 C-30.28613307 51.62108515 -30.32052374 55.10257904 -30.36830902 58.58444786 C-30.39038165 60.5602481 -30.39247629 62.53623861 -30.39434814 64.51216125 C-30.41406677 65.71317978 -30.4337854 66.9141983 -30.45410156 68.15161133 C-30.46742523 69.74045891 -30.46742523 69.74045891 -30.48101807 71.36140442 C-31 74 -31 74 -32.90911865 75.86552429 C-35 77 -35 77 -37 77 C-37 59.18 -37 41.36 -37 23 C-41.5841963 24.45288986 -41.5841963 24.45288986 -43 26 C-43.07057773 27.54395741 -43.07248814 29.09112122 -43.04663086 30.63647461 C-43.02813332 32.11953346 -43.02813332 32.11953346 -43.00926208 33.6325531 C-42.98727501 35.25109947 -42.98727501 35.25109947 -42.96484375 36.90234375 C-42.95880896 39.1777287 -42.95564812 41.45312274 -42.95507812 43.72851562 C-42.9533652 47.3239542 -42.93788472 50.91608859 -42.87329102 54.51098633 C-42.52183496 75.59689106 -42.52183496 75.59689106 -46.26220703 80.85986328 C-48.72579767 83.34802402 -50.95827341 85.27975776 -54 87 C-54.33 87 -54.66 87 -55 87 C-55 83.37 -55 79.74 -55 76 C-53.02 75.505 -53.02 75.505 -51 75 C-51 58.83 -51 42.66 -51 26 C-54.76429774 24 -54.76429774 24 -58 23 C-58 40.82 -58 58.64 -58 77 C-58.99 77 -59.98 77 -61 77 C-61 76.34 -61 75.68 -61 75 C-61.99 74.67 -62.98 74.34 -64 74 C-64.33 54.2 -64.66 34.4 -65 14 C-66.98 16.97 -66.98 16.97 -69 20 C-74.49429974 23.29657984 -79.66896266 23.75220246 -86 23 C-89.93673056 21.71161545 -91.46517017 20.8618111 -93.6484375 17.34375 C-95.19756538 13.51122553 -95.30396406 10.7400633 -95.1875 6.625 C-95.16042969 5.37976563 -95.13335937 4.13453125 -95.10546875 2.8515625 C-95.07066406 1.91054687 -95.03585938 0.96953125 -95 0 C-63.30173139 -1.17410855 -31.70521072 -0.79869066 0 0 Z M-58 5 C-58 9.29 -58 13.58 -58 18 C-54.22864294 18.34598542 -54.22864294 18.34598542 -52.25 16.9375 C-50.28304601 13.88872131 -50.55911132 11.52710947 -51 8 C-52.69164222 5.95970404 -52.69164222 5.95970404 -55 5 C-55.99 5 -56.98 5 -58 5 Z M-41 5 C-41 5.66 -41 6.32 -41 7 C-41.99 7.33 -42.98 7.66 -44 8 C-44.41290876 12.7012693 -44.41290876 12.7012693 -42.75 16.9375 C-40.77135706 18.34598542 -40.77135706 18.34598542 -37 18 C-37 13.71 -37 9.42 -37 5 C-38.32 5 -39.64 5 -41 5 Z M-89 6 C-89.5547002 11.76887492 -89.5547002 11.76887492 -87 15 C-86.01 15 -85.02 15 -84 15 C-84 15.66 -84 16.32 -84 17 C-81.36 17 -78.72 17 -76 17 C-76 16.34 -76 15.68 -76 15 C-75.38125 14.7525 -74.7625 14.505 -74.125 14.25 C-71.60474173 12.76749514 -70.98768341 11.71612936 -70 9 C-70 8.01 -70 7.02 -70 6 C-76.27 6 -82.54 6 -89 6 Z M-25 6 C-25.55275626 10.98883858 -25.55275626 10.98883858 -22.5625 13.75 C-21.716875 14.4925 -20.87125 15.235 -20 16 C-19.67 16.33 -19.34 16.66 -19 17 C-13.12353969 17.46331437 -13.12353969 17.46331437 -8 15 C-7.42006301 12.80545319 -7.42006301 12.80545319 -7.3125 10.375 C-7.209375 8.93125 -7.10625 7.4875 -7 6 C-12.94 6 -18.88 6 -25 6 Z " fill="#712D2E" transform="translate(99,13)"/>
<path d="M0 0 C13.2 0 26.4 0 40 0 C40 5.28 40 10.56 40 16 C35.090583 20.909417 33.70961598 22.1216912 27.3125 22.3125 C22.30673757 22.25386735 17.88183504 21.32049124 14 18 C13.29739552 16.34816188 12.62713539 14.68194038 12 13 C11.99635437 13.74502274 11.99270874 14.49004547 11.98895264 15.25764465 C11.9510961 22.27658677 11.89427091 29.29505846 11.81609726 36.31364918 C11.77657635 39.92209005 11.74441102 43.53028523 11.72900391 47.13891602 C11.71386693 50.62108515 11.67947626 54.10257904 11.63169098 57.58444786 C11.60961835 59.5602481 11.60752371 61.53623861 11.60565186 63.51216125 C11.57607391 65.31368904 11.57607391 65.31368904 11.54589844 67.15161133 C11.53701599 68.21084305 11.52813354 69.27007477 11.51898193 70.36140442 C11 73 11 73 9.09088135 74.86552429 C7 76 7 76 5 76 C5 58.18 5 40.36 5 22 C2.69 22.66 0.38 23.32 -2 24 C-2 21.36 -2 18.72 -2 16 C0.31 16.33 2.62 16.66 5 17 C4.97679687 16.39671875 4.95359375 15.7934375 4.9296875 15.171875 C4.91164063 14.37265625 4.89359375 13.5734375 4.875 12.75 C4.85179687 11.96109375 4.82859375 11.1721875 4.8046875 10.359375 C5.0171622 7.79268059 5.71345895 6.2083933 7 4 C4.36 3.67 1.72 3.34 -1 3 C-0.67 2.01 -0.34 1.02 0 0 Z M17 5 C16.44724374 9.98883858 16.44724374 9.98883858 19.4375 12.75 C20.283125 13.4925 21.12875 14.235 22 15 C22.33 15.33 22.66 15.66 23 16 C28.87646031 16.46331437 28.87646031 16.46331437 34 14 C34.57993699 11.80545319 34.57993699 11.80545319 34.6875 9.375 C34.790625 7.93125 34.89375 6.4875 35 5 C29.06 5 23.12 5 17 5 Z " fill="#692526" transform="translate(57,14)"/>
<path d="M0 0 C31.35 0 62.7 0 95 0 C95 2.31 95 4.62 95 7 C63.65 6.67 32.3 6.34 0 6 C0 4.02 0 2.04 0 0 Z " fill="#A01C20" transform="translate(4,5)"/>
<path d="M0 0 C0.66 0 1.32 0 2 0 C2.14582731 7.10849516 2.2877497 14.21706142 2.42724609 21.32568359 C2.47489822 23.7322761 2.52336993 26.13885256 2.57275391 28.54541016 C2.71607779 35.5448808 2.83747752 42.54424035 2.93948364 49.54443359 C2.99991846 52.99534369 3.0921414 56.44442297 3.18725586 59.89453125 C3.22867748 62.05466901 3.2691666 64.21482491 3.30859375 66.375 C3.34388184 67.36121338 3.37916992 68.34742676 3.41552734 69.36352539 C3.49327766 75.4800625 2.84356579 78.54144392 -1.4375 83 C-5.43125 86 -5.43125 86 -7 86 C-7 82.37 -7 78.74 -7 75 C-5.02 74.505 -5.02 74.505 -3 74 C-3.00444122 73.31983826 -3.00888245 72.63967651 -3.01345825 71.93890381 C-3.05766999 64.86635436 -3.08785752 57.7938441 -3.10986328 50.72119141 C-3.11992719 48.08087571 -3.13357952 45.44057117 -3.15087891 42.80029297 C-3.17510971 39.00745897 -3.18647923 35.21477221 -3.1953125 31.421875 C-3.20563507 30.23946228 -3.21595764 29.05704956 -3.22659302 27.83880615 C-3.22674408 26.73796692 -3.22689514 25.63712769 -3.22705078 24.50292969 C-3.231492 23.53474304 -3.23593323 22.5665564 -3.24050903 21.56903076 C-2.98854146 18.87760397 -2.25480287 17.35594228 -1 15 C-0.7956586 11.52434925 -0.7956586 11.52434925 -0.9375 7.8125 C-0.99127623 5.54220791 -1.02056384 3.27083579 -1 1 C-0.67 0.67 -0.34 0.34 0 0 Z " fill="#441A1A" transform="translate(51,14)"/>
<path d="M0 0 C0.05402274 2.10388569 0.09280256 4.20816714 0.125 6.3125 C0.14820312 7.48425781 0.17140625 8.65601563 0.1953125 9.86328125 C0 13 0 13 -2 16 C-2 11.05 -2 6.1 -2 1 C-15.2 1.33 -28.4 1.66 -42 2 C-42.33 2.66 -42.66 3.32 -43 4 C-40.03 4 -37.06 4 -34 4 C-34.66 5.65 -35.32 7.3 -36 9 C-36.495 7.02 -36.495 7.02 -37 5 C-38.32 5 -39.64 5 -41 5 C-41 5.66 -41 6.32 -41 7 C-41.66 7.33 -42.32 7.66 -43 8 C-42.99419922 8.9904834 -42.98839844 9.9809668 -42.98242188 11.00146484 C-42.92852824 24.88052666 -43.20971051 38.7495518 -43.5 52.625 C-43.54834351 54.99999662 -43.59652169 57.37499661 -43.64453125 59.75 C-43.761119 65.50004017 -43.87973173 71.25003569 -44 77 C-44.33 77 -44.66 77 -45 77 C-45.92486353 60.01132457 -46.12435808 43.07347272 -46.0625 26.0625 C-46.05746681 23.61393322 -46.05290717 21.16536543 -46.04882812 18.71679688 C-46.03798538 12.81117504 -46.0213962 6.90559257 -46 1 C-46.66 1.33 -47.32 1.66 -48 2 C-47.98839844 3.00160156 -47.97679687 4.00320312 -47.96484375 5.03515625 C-47.95545602 6.37760228 -47.94635688 7.72005036 -47.9375 9.0625 C-47.92589844 10.37347656 -47.91429687 11.68445313 -47.90234375 13.03515625 C-47.99501512 16.79761382 -48.25472827 20.31090492 -49 24 C-51.0625 25.4375 -51.0625 25.4375 -53 26 C-53.66 25.01 -54.32 24.02 -55 23 C-54.34 23 -53.68 23 -53 23 C-52.67 21.02 -52.34 19.04 -52 17 C-52.66 16.67 -53.32 16.34 -54 16 C-53.01 15.67 -52.02 15.34 -51 15 C-51 12.69 -51 10.38 -51 8 C-51.66 7.67 -52.32 7.34 -53 7 C-52.67 5.02 -52.34 3.04 -52 1 C-65.53 1.33 -79.06 1.66 -93 2 C-93 6.62 -93 11.24 -93 16 C-95 14 -95 14 -95.1953125 10.7421875 C-95.17210938 9.46601563 -95.14890625 8.18984375 -95.125 6.875 C-95.10695313 5.59367187 -95.08890625 4.31234375 -95.0703125 2.9921875 C-95.04710938 2.00476563 -95.02390625 1.01734375 -95 0 C-63.30173139 -1.17410855 -31.70521072 -0.79869066 0 0 Z " fill="#A45C5E" transform="translate(99,13)"/>
<path d="M0 0 C31.35 0 62.7 0 95 0 C95 2.31 95 4.62 95 7 C63.65 6.67 32.3 6.34 0 6 C0 4.02 0 2.04 0 0 Z M1 1 C1 2.32 1 3.64 1 5 C31.36 5 61.72 5 93 5 C93 3.68 93 2.36 93 1 C62.64 1 32.28 1 1 1 Z " fill="#AE6767" transform="translate(4,5)"/>
<path d="M0 0 C0.66 0 1.32 0 2 0 C2.33 3.63 2.66 7.26 3 11 C2.34 10.34 1.68 9.68 1 9 C0.67 18.57 0.34 28.14 0 38 C-0.33 38 -0.66 38 -1 38 C-1.02464928 32.74894558 -1.04283568 27.49792455 -1.05493164 22.24682617 C-1.05997218 20.45905979 -1.06680454 18.67129755 -1.07543945 16.88354492 C-1.0875173 14.31948832 -1.09323094 11.75548603 -1.09765625 9.19140625 C-1.10281754 8.3872377 -1.10797882 7.58306915 -1.11329651 6.75453186 C-1.11349215 4.83598285 -1.06201983 2.91754632 -1 1 C-0.67 0.67 -0.34 0.34 0 0 Z " fill="#703838" transform="translate(68,18)"/>
<path d="M0 0 C2.20613734 4.11812304 3.1975827 7.43545372 2.87890625 12.109375 C2.83056641 12.86347656 2.78222656 13.61757813 2.73242188 14.39453125 C2.64831055 15.56048828 2.64831055 15.56048828 2.5625 16.75 C2.51029297 17.54277344 2.45808594 18.33554687 2.40429688 19.15234375 C2.27510676 21.10193997 2.13830035 23.05102886 2 25 C1.67 25 1.34 25 1 25 C0.24636948 21.64908229 -0.11979937 18.56890188 -0.09765625 15.13671875 C-0.09443359 14.25048828 -0.09121094 13.36425781 -0.08789062 12.45117188 C-0.07951172 11.53916016 -0.07113281 10.62714844 -0.0625 9.6875 C-0.05798828 8.75615234 -0.05347656 7.82480469 -0.04882812 6.86523438 C-0.03709234 4.57675627 -0.02067363 2.28841192 0 0 Z " fill="#622829" transform="translate(48,33)"/>
<path d="M0 0 C-0.66 2.31 -1.32 4.62 -2 7 C-2.66 7 -3.32 7 -4 7 C-3.34 4.69 -2.68 2.38 -2 0 C-8.27 0 -14.54 0 -21 0 C-21 1.98 -21 3.96 -21 6 C-21.33 6 -21.66 6 -22 6 C-22 3.69 -22 1.38 -22 -1 C-18.70926338 -1.22531972 -15.41750581 -1.42735982 -12.125 -1.625 C-10.71927734 -1.72167969 -10.71927734 -1.72167969 -9.28515625 -1.8203125 C-8.38925781 -1.871875 -7.49335938 -1.9234375 -6.5703125 -1.9765625 C-5.74289551 -2.02893066 -4.91547852 -2.08129883 -4.06298828 -2.13525391 C-2 -2 -2 -2 0 0 Z " fill="#A47674" transform="translate(31,19)"/>
<path d="M0 0 C0.99 0.33 1.98 0.66 3 1 C2.88658509 3.48020497 2.75985314 5.95844969 2.625 8.4375 C2.5940625 9.14455078 2.563125 9.85160156 2.53125 10.58007812 C2.42719371 12.39239188 2.22080108 14.19817988 2 16 C1.34 16.33 0.68 16.66 0 17 C0 11.39 0 5.78 0 0 Z " fill="#1A1314" transform="translate(48,72)"/>
<path d="M0 0 C0.66 0 1.32 0 2 0 C2.33 3.63 2.66 7.26 3 11 C0.08831354 7.11775139 -0.58841824 5.63029484 -1 1 C-0.67 0.67 -0.34 0.34 0 0 Z " fill="#9F5254" transform="translate(68,18)"/>
<path d="" fill="#EEFFFF" transform="translate(0,0)"/>
</svg>
