<svg width="100" height="26" viewBox="0 0 100 26" fill="none" xmlns="http://www.w3.org/2000/svg">
<path d="M12.5172 6.25862C12.5172 9.71516 9.71516 12.5172 6.25862 12.5172C2.80208 12.5172 0 9.71516 0 6.25862C0 2.80208 2.80208 0 6.25862 0C9.71516 0 12.5172 2.80208 12.5172 6.25862Z" fill="#3368FC"/>
<path d="M13.3448 6.25862C13.3448 2.80208 16.1469 0 19.6035 0C23.06 0 25.8621 2.80208 25.8621 6.25862C25.8621 9.71516 23.06 12.5172 19.6035 12.5172H13.3448V6.25862Z" fill="#3368FC"/>
<path d="M0 19.6035C0 16.1469 2.80208 13.3448 6.25862 13.3448H12.5172V19.6034C12.5172 23.06 9.71516 25.8621 6.25862 25.8621C2.80208 25.8621 0 23.06 0 19.6035Z" fill="#3368FC"/>
<path d="M25.8621 19.6035C25.8621 23.06 23.06 25.8621 19.6035 25.8621C16.1469 25.8621 13.3448 23.06 13.3448 19.6035C13.3448 16.1469 16.1469 13.3448 19.6035 13.3448C23.06 13.3448 25.8621 16.1469 25.8621 19.6035Z" fill="#3368FC"/>
<path d="M46.15 7.02549H40.2724L41.769 5.23928V21.9307H38.0396V5.23928L39.5845 7.02549H33.6707V4.12894H46.15V7.02549ZM46.9807 21.9307V9.11342H50.7341V13.5307L49.9617 13.0479C50.0502 12.4445 50.2111 11.8893 50.4445 11.3824C50.6778 10.8755 50.9795 10.437 51.3496 10.0669C51.7198 9.68871 52.1583 9.39503 52.6652 9.18584C53.1801 8.97664 53.7675 8.87204 54.4272 8.87204C54.9422 8.87204 55.3445 8.91227 55.6341 8.99273C55.9318 9.06515 56.1169 9.12147 56.1893 9.1617L55.5738 12.5169C55.5014 12.4766 55.3404 12.4123 55.091 12.3238C54.8416 12.2353 54.5198 12.191 54.1255 12.191C53.4818 12.191 52.9427 12.2996 52.5083 12.5169C52.0738 12.7341 51.7238 13.0238 51.4583 13.3858C51.2008 13.7399 51.0157 14.1341 50.9031 14.5686C50.7904 15.0031 50.7341 15.4416 50.7341 15.8841V21.9307H46.9807ZM59.2837 16.6445V14.1703H67.7802L67.4182 14.7979C67.4182 14.7335 67.4182 14.6732 67.4182 14.6169C67.4182 14.5525 67.4182 14.4922 67.4182 14.4358C67.4182 13.9772 67.3095 13.5387 67.0923 13.1203C66.875 12.6939 66.5371 12.3479 66.0785 12.0824C65.6279 11.8088 65.0486 11.672 64.3406 11.672C63.6325 11.672 63.021 11.8249 62.5061 12.1307C61.9992 12.4284 61.609 12.8588 61.3354 13.422C61.0699 13.9853 60.9371 14.6651 60.9371 15.4617C60.9371 16.2824 61.0659 16.9864 61.3233 17.5738C61.5888 18.1531 61.9791 18.5996 62.494 18.9134C63.017 19.2272 63.6647 19.3841 64.4371 19.3841C64.936 19.3841 65.3664 19.3399 65.7285 19.2514C66.0906 19.1548 66.3842 19.0341 66.6095 18.8893C66.8429 18.7445 67.0199 18.5835 67.1406 18.4065C67.2613 18.2295 67.3337 18.0565 67.3578 17.8876H71.0509C71.0026 18.4266 70.8176 18.9577 70.4957 19.4807C70.1739 19.9956 69.7273 20.4623 69.1561 20.8807C68.5848 21.291 67.8888 21.6169 67.0682 21.8583C66.2555 22.0996 65.3262 22.2203 64.2802 22.2203C62.8641 22.2203 61.6291 21.9387 60.575 21.3755C59.521 20.8042 58.7044 20.0197 58.125 19.022C57.5457 18.0163 57.2561 16.8577 57.2561 15.5462C57.2561 14.2186 57.5498 13.056 58.1371 12.0582C58.7325 11.0525 59.5572 10.272 60.6113 9.71687C61.6733 9.15365 62.9003 8.87204 64.2923 8.87204C65.7164 8.87204 66.9475 9.15767 67.9854 9.72894C69.0233 10.2922 69.8239 11.0847 70.3871 12.1065C70.9503 13.1203 71.2319 14.3031 71.2319 15.6548C71.2319 15.856 71.2279 16.0491 71.2199 16.2341C71.2118 16.4192 71.1998 16.556 71.1837 16.6445H59.2837ZM76.4401 18.9979H83.3918V21.9307H72.4332V19.1548L79.2159 11.9014L79.3004 12.0341H72.6746V9.11342H83.247V11.8893L76.5246 19.1186L76.4401 18.9979ZM91.6826 22.2083C90.2987 22.2083 89.0797 21.9226 88.0257 21.3514C86.9717 20.7801 86.147 19.9956 85.5516 18.9979C84.9642 17.9922 84.6705 16.8335 84.6705 15.522C84.6705 14.2186 84.9642 13.068 85.5516 12.0703C86.147 11.0646 86.9717 10.2841 88.0257 9.72894C89.0797 9.16572 90.2987 8.88411 91.6826 8.88411C93.0665 8.88411 94.2855 9.16572 95.3395 9.72894C96.3935 10.2841 97.2142 11.0646 97.8016 12.0703C98.397 13.068 98.6947 14.2186 98.6947 15.522C98.6947 16.8335 98.397 17.9922 97.8016 18.9979C97.2142 19.9956 96.3935 20.7801 95.3395 21.3514C94.2855 21.9226 93.0665 22.2083 91.6826 22.2083ZM91.6826 19.2393C92.3343 19.2393 92.9016 19.0864 93.3843 18.7807C93.8671 18.4749 94.2412 18.0445 94.5068 17.4893C94.7723 16.9261 94.905 16.2703 94.905 15.522C94.905 14.7738 94.7723 14.1261 94.5068 13.5789C94.2412 13.0238 93.8671 12.5973 93.3843 12.2996C92.9016 12.0019 92.3343 11.8531 91.6826 11.8531C91.0389 11.8531 90.4717 12.0019 89.9809 12.2996C89.4981 12.5973 89.124 13.0238 88.8585 13.5789C88.593 14.1261 88.4602 14.7738 88.4602 15.522C88.4602 16.2703 88.593 16.9261 88.8585 17.4893C89.124 18.0445 89.4981 18.4749 89.9809 18.7807C90.4717 19.0864 91.0389 19.2393 91.6826 19.2393Z" fill="white"/>
</svg>
