<svg width="155" height="40" viewBox="0 0 155 40" fill="none" xmlns="http://www.w3.org/2000/svg">
<g clip-path="url(#clip0_83_474)">
<path d="M14.3112 30.0415C14.3108 30.0818 14.3106 30.1223 14.3106 30.1628C14.3106 30.4734 14.3217 30.7782 14.344 31.0772H20.5595C20.5036 30.7879 20.4756 30.4831 20.4756 30.1628C20.4756 30.1221 20.4761 30.0817 20.477 30.0415H14.3112Z" fill="#B1B1B1"/>
<path d="M6.72775 30.0415V31.0772H0.830811V30.0415H6.72775Z" fill="#B1B1B1"/>
<path d="M14.3663 28.9875H20.6221C20.7016 28.6857 20.8136 28.3984 20.9581 28.1256C20.9922 28.0663 21.0276 28.0084 21.0642 27.9517H14.5169C14.4508 28.2888 14.4006 28.634 14.3663 28.9875Z" fill="#B1B1B1"/>
<path d="M6.72775 27.9517V28.9875H0.830811V27.9517H6.72775Z" fill="#B1B1B1"/>
<path d="M13.76 26.898C13.5136 26.6626 13.1709 26.4822 12.7319 26.3568C12.2494 26.2317 11.5615 26.1691 10.668 26.1691H6.72775V26.898H0.830811V25.8623H14.0721V26.898H13.76Z" fill="#B1B1B1"/>
<path d="M14.7836 26.898H22.0879C22.173 26.8397 22.261 26.7843 22.3519 26.7319C22.9416 26.3925 23.6207 26.2227 24.3891 26.2227C25.1575 26.2227 25.8276 26.3925 26.3994 26.7319C26.4904 26.7843 26.5782 26.8397 26.6628 26.898H33.9503C33.8727 26.6594 33.786 26.4254 33.6902 26.1959C33.6448 26.0833 33.5976 25.9721 33.5486 25.8623H15.1808C15.1302 25.9721 15.0814 26.0833 15.0344 26.1959C14.9419 26.4254 14.8583 26.6594 14.7836 26.898Z" fill="#B1B1B1"/>
<path d="M15.7464 24.8082H32.9955C32.7734 24.4442 32.5273 24.0989 32.2572 23.7725H16.4925C16.2209 24.0989 15.9722 24.4442 15.7464 24.8082Z" fill="#B1B1B1"/>
<path d="M17.5303 22.7189H31.2276C30.7788 22.3291 30.2916 21.9838 29.7658 21.6831H18.9981C18.4744 21.9838 17.9852 22.3291 17.5303 22.7189Z" fill="#B1B1B1"/>
<path d="M14.0721 21.6831V22.7189H0.723909C0.694244 22.5394 0.658392 22.3761 0.616374 22.229C0.563389 22.0246 0.495949 21.8426 0.414093 21.6831H14.0721Z" fill="#B1B1B1"/>
<path d="M40.6473 21.6831C40.6221 21.6952 40.5969 21.7074 40.5717 21.7197C39.9862 22.0091 39.448 22.3422 38.9569 22.7189H52.1406C52.1441 22.7073 52.1476 22.6959 52.1512 22.6847C52.2763 22.2915 52.4729 21.9877 52.7409 21.7733V21.6831H40.6473Z" fill="#B1B1B1"/>
<path d="M57.6874 21.6831C57.1637 21.9838 56.6745 22.3291 56.2196 22.7189H69.917C69.4682 22.3291 68.9809 21.9838 68.4551 21.6831H57.6874Z" fill="#B1B1B1"/>
<path d="M99.0129 21.6831H107.387C107.702 21.8522 107.993 22.0431 108.26 22.2557C108.443 22.4029 108.612 22.5574 108.769 22.7189H99.0129V21.6831Z" fill="#B1B1B1"/>
<path d="M82.2141 21.6831H88.9537C88.8713 21.8343 88.7976 22.0073 88.7326 22.2022C88.6822 22.3534 88.6397 22.5256 88.6051 22.7189H82.5009C82.4749 22.5394 82.4435 22.3761 82.4068 22.229C82.3538 22.0246 82.2895 21.8426 82.2141 21.6831Z" fill="#B1B1B1"/>
<path d="M74.2168 21.6831H80.8744C80.7989 21.8426 80.7347 22.0246 80.6817 22.229C80.6449 22.3761 80.6135 22.5394 80.5876 22.7189H74.5036C74.4776 22.5394 74.4463 22.3761 74.4095 22.229C74.3565 22.0246 74.2923 21.8426 74.2168 21.6831Z" fill="#B1B1B1"/>
<path d="M70.9465 23.7725H55.1818C54.9101 24.0989 54.6615 24.4442 54.4357 24.8082H71.6848C71.4627 24.4442 71.2165 24.0989 70.9465 23.7725Z" fill="#B1B1B1"/>
<path d="M74.5971 24.8082V24.2926C74.5971 24.1112 74.5944 23.9378 74.5891 23.7725H80.5021C80.4968 23.9378 80.4941 24.1112 80.4941 24.2926V24.8082H74.5971Z" fill="#B1B1B1"/>
<path d="M72.2378 25.8623H53.8701C53.8196 25.9721 53.7707 26.0833 53.7237 26.1959C53.6312 26.4254 53.5476 26.6594 53.4729 26.898H60.7772C60.8623 26.8397 60.9503 26.7843 61.0412 26.7319C61.6309 26.3925 62.31 26.2227 63.0784 26.2227C63.8468 26.2227 64.5169 26.3925 65.0887 26.7319C65.1797 26.7843 65.2675 26.8397 65.3521 26.898H72.6395C72.5621 26.6594 72.4754 26.4254 72.3795 26.1959C72.3341 26.0833 72.2869 25.9721 72.2378 25.8623Z" fill="#B1B1B1"/>
<path d="M74.5971 26.898V25.8623H80.4941V26.898H74.5971Z" fill="#B1B1B1"/>
<path d="M72.9161 27.9517H66.3547C66.3898 28.0084 66.4234 28.0663 66.4557 28.1256C66.6082 28.3984 66.7264 28.6857 66.8104 28.9875H73.0723C73.0367 28.634 72.9846 28.2888 72.9161 27.9517Z" fill="#B1B1B1"/>
<path d="M74.5971 28.9875V27.9517H80.4941V28.9875H74.5971Z" fill="#B1B1B1"/>
<path d="M73.1294 30.0415H66.9635C66.9645 30.0817 66.965 30.1221 66.965 30.1628C66.965 30.4831 66.9355 30.7879 66.8765 31.0772H73.0954C73.1185 30.7782 73.13 30.4734 73.13 30.1628C73.13 30.1223 73.1298 30.0818 73.1294 30.0415Z" fill="#B1B1B1"/>
<path d="M74.5971 31.0772V30.0415H80.4941V31.0772H74.5971Z" fill="#B1B1B1"/>
<path d="M72.9624 32.1309H66.4943C66.4817 32.154 66.4688 32.1769 66.4557 32.1997C66.2527 32.5718 65.9964 32.8942 65.6868 33.1666H72.7201C72.8186 32.8302 72.8994 32.4851 72.9624 32.1309Z" fill="#B1B1B1"/>
<path d="M74.5971 33.1666V32.1309H80.4941V33.1666H74.5971Z" fill="#B1B1B1"/>
<path d="M72.3423 34.2207H53.7622C53.9166 34.5808 54.0892 34.9259 54.2797 35.2565H71.8382C72.025 34.9259 72.1931 34.5808 72.3423 34.2207Z" fill="#B1B1B1"/>
<path d="M74.5971 35.2565V34.2207H80.4941V35.2565H74.5971Z" fill="#B1B1B1"/>
<path d="M71.1402 36.3105H54.9868C55.2408 36.6379 55.5167 36.9475 55.8144 37.2393C55.8518 37.2753 55.8896 37.3109 55.9275 37.3462H70.2046C70.2418 37.3109 70.2788 37.2753 70.3155 37.2393C70.6133 36.9475 70.8881 36.6379 71.1402 36.3105Z" fill="#B1B1B1"/>
<path d="M74.5353 37.3462C74.5688 37.0435 74.5886 36.6983 74.5949 36.3105H80.4962C80.5025 36.6983 80.5224 37.0435 80.5558 37.3462H74.5353Z" fill="#B1B1B1"/>
<path d="M68.8561 38.3999H57.2873C57.8212 38.7416 58.3935 39.0337 59.0041 39.2762C60.2371 39.7587 61.5952 39.9999 63.0784 39.9999C64.5437 39.9999 65.8928 39.7587 67.1258 39.2762C67.7455 39.0337 68.3222 38.7416 68.8561 38.3999Z" fill="#B1B1B1"/>
<path d="M50.6502 37.3462V36.3105H37.5705C37.8863 36.6847 38.2348 37.0299 38.6162 37.3462H50.6502Z" fill="#B1B1B1"/>
<path d="M40.2065 38.3999H50.6502V39.7587C50.257 39.6336 49.8639 39.5711 49.4708 39.5711C49.2027 39.5711 48.8185 39.6068 48.3182 39.6783C47.8357 39.7497 47.2728 39.7855 46.6295 39.7855C44.3243 39.7855 42.3408 39.4013 40.6789 38.6329C40.5178 38.5585 40.3604 38.4808 40.2065 38.3999Z" fill="#B1B1B1"/>
<path d="M31.5152 37.3462C31.5525 37.3109 31.5895 37.2753 31.6262 37.2393C31.9239 36.9475 32.1988 36.6379 32.4509 36.3105H16.2975C16.5515 36.6379 16.8274 36.9475 17.1251 37.2393C17.1625 37.2753 17.2002 37.3109 17.2382 37.3462H31.5152Z" fill="#B1B1B1"/>
<path d="M18.598 38.3999H30.1667C29.6329 38.7416 29.0561 39.0337 28.4365 39.2762C27.2035 39.7587 25.8544 39.9999 24.3891 39.9999C22.9059 39.9999 21.5478 39.7587 20.3148 39.2762C19.7042 39.0337 19.1319 38.7416 18.598 38.3999Z" fill="#B1B1B1"/>
<path d="M6.80125 37.3462C6.76148 37.044 6.73786 36.6987 6.73036 36.3105H0.828611C0.822305 36.6983 0.802456 37.0435 0.769043 37.3462H6.80125Z" fill="#B1B1B1"/>
<path d="M0.544846 38.3999H7.07312C7.2187 38.7416 7.39844 38.998 7.61228 39.169V39.4103H0.0802612V39.169C0.271774 38.9912 0.426643 38.7348 0.544846 38.3999Z" fill="#B1B1B1"/>
<path d="M0.830811 35.2565H6.72775V34.2207H0.830811V35.2565Z" fill="#B1B1B1"/>
<path d="M0.830811 33.1666H6.72775V32.1309H0.830811V33.1666Z" fill="#B1B1B1"/>
<path d="M14.4723 32.1309C14.533 32.4851 14.6109 32.8302 14.7059 33.1666H21.7502C21.4364 32.8942 21.1723 32.5718 20.9581 32.1997C20.9457 32.1769 20.9335 32.154 20.9215 32.1309H14.4723Z" fill="#B1B1B1"/>
<path d="M27.8051 32.1309C27.7924 32.154 27.7795 32.1769 27.7664 32.1997C27.5635 32.5718 27.3071 32.8942 26.9974 33.1666H34.0308C34.1293 32.8302 34.2101 32.4851 34.2731 32.1309H27.8051Z" fill="#B1B1B1"/>
<path d="M35.6749 32.1309C35.7365 32.4876 35.8149 32.8328 35.91 33.1666H43.0693C42.7441 32.9161 42.4744 32.6207 42.2604 32.2802C42.2296 32.2312 42.2 32.1814 42.1716 32.1309H35.6749Z" fill="#B1B1B1"/>
<path d="M41.7772 31.0772H35.5445C35.5186 30.7455 35.5057 30.405 35.5057 30.0557C35.5057 30.0509 35.5057 30.0462 35.5057 30.0415H41.6707C41.6715 30.4088 41.707 30.7541 41.7772 31.0772Z" fill="#B1B1B1"/>
<path d="M52.6096 31.0772H45.8411C46.0307 30.8466 46.1774 30.524 46.2811 30.1093C46.2868 30.0871 46.2924 30.0645 46.2979 30.0415H52.1343C52.1398 30.0645 52.1454 30.0871 52.1512 30.1093C52.2549 30.524 52.4077 30.8466 52.6096 31.0772Z" fill="#B1B1B1"/>
<path d="M53.1616 32.1309C53.2223 32.4851 53.3002 32.8302 53.3952 33.1666H60.4395C60.1257 32.8942 59.8617 32.5718 59.6474 32.1997C59.635 32.1769 59.6228 32.154 59.6108 32.1309H53.1616Z" fill="#B1B1B1"/>
<path d="M59.2488 31.0772H53.0332C53.011 30.7782 52.9999 30.4734 52.9999 30.1628C52.9999 30.1223 53.0001 30.0818 53.0005 30.0415H59.1664C59.1654 30.0817 59.1649 30.1221 59.1649 30.1628C59.1649 30.4831 59.1929 30.7879 59.2488 31.0772Z" fill="#B1B1B1"/>
<path d="M59.3113 28.9875C59.3909 28.6857 59.503 28.3984 59.6474 28.1256C59.6815 28.0663 59.7169 28.0084 59.7535 27.9517H53.2062C53.1401 28.2888 53.0899 28.634 53.0556 28.9875H59.3113Z" fill="#B1B1B1"/>
<path d="M51.9915 28.9875C51.9729 28.704 51.9636 28.3899 51.9636 28.0452V27.9517H46.4687V28.0452C46.4687 28.3899 46.4594 28.704 46.4408 28.9875H51.9915Z" fill="#B1B1B1"/>
<path d="M41.7774 28.9875C41.8577 28.6172 41.9835 28.272 42.1548 27.9517H35.7049C35.6378 28.2878 35.5877 28.6331 35.5545 28.9875H41.7774Z" fill="#B1B1B1"/>
<path d="M34.383 28.9875C34.3474 28.634 34.2953 28.2888 34.2268 27.9517H27.6655C27.7005 28.0084 27.7341 28.0663 27.7664 28.1256C27.9189 28.3984 28.0371 28.6857 28.1211 28.9875H34.383Z" fill="#B1B1B1"/>
<path d="M28.2742 30.0415C28.2752 30.0817 28.2757 30.1221 28.2757 30.1628C28.2757 30.4831 28.2462 30.7879 28.1872 31.0772H34.4061C34.4292 30.7782 34.4407 30.4734 34.4407 30.1628C34.4407 30.1223 34.4405 30.0818 34.4401 30.0415H28.2742Z" fill="#B1B1B1"/>
<path d="M35.9805 26.898H43.05C43.2652 26.7238 43.5024 26.5702 43.7614 26.4372C44.4405 26.1155 45.2357 25.9547 46.1471 25.9547C46.255 25.9547 46.3622 25.9558 46.4687 25.958V26.898H51.9636V25.8623H36.3956C36.2356 26.1959 36.0973 26.5412 35.9805 26.898Z" fill="#B1B1B1"/>
<path d="M36.9979 24.8082H51.9636V24.5338C51.9636 24.2555 51.9705 24.0017 51.9842 23.7725H37.8081C37.5138 24.0954 37.2437 24.4406 36.9979 24.8082Z" fill="#B1B1B1"/>
<path d="M50.6502 34.2207H36.2824C36.4366 34.5815 36.6136 34.9268 36.8136 35.2565H50.6502V34.2207Z" fill="#B1B1B1"/>
<path d="M33.1488 35.2565C33.3357 34.9259 33.5038 34.5808 33.653 34.2207H15.0728C15.2273 34.5808 15.3999 34.9259 15.5904 35.2565H33.1488Z" fill="#B1B1B1"/>
<path d="M74.3112 38.3999H80.78C80.8982 38.7348 81.0531 38.9912 81.2446 39.169V39.4103H73.8466V39.169C74.0381 38.9912 74.193 38.7348 74.3112 38.3999Z" fill="#B1B1B1"/>
<path d="M82.2787 38.3999C82.1541 38.7348 81.9824 38.9912 81.7635 39.169V39.4103H90.3677C91.9759 39.4103 93.3519 39.1511 94.4956 38.6329C94.6649 38.56 94.8285 38.4823 94.9864 38.3999H82.2787Z" fill="#B1B1B1"/>
<path d="M100.836 38.3999C102.075 39.2164 103.736 39.6246 105.821 39.6246C106.304 39.6246 106.741 39.5978 107.135 39.5442C107.528 39.4906 107.823 39.4638 108.019 39.4638C108.323 39.4638 108.654 39.5264 109.011 39.6515V38.3999H100.836Z" fill="#B1B1B1"/>
<path d="M109.011 37.3462H99.6536C99.3939 37.028 99.1827 36.6828 99.0199 36.3105H109.011V37.3462Z" fill="#B1B1B1"/>
<path d="M110.89 38.3999C110.772 38.7348 110.617 38.9912 110.425 39.169V39.4103H117.797V39.169C117.605 38.9912 117.45 38.7348 117.332 38.3999H110.89Z" fill="#B1B1B1"/>
<path d="M117.126 37.3462H111.114C111.148 37.0435 111.167 36.6983 111.174 36.3105H117.075C117.08 36.6983 117.097 37.0435 117.126 37.3462Z" fill="#B1B1B1"/>
<path d="M120.308 38.3999C120.197 38.7348 120.039 38.9912 119.834 39.169V39.4103H127.232V39.169C127.027 38.9912 126.863 38.7348 126.742 38.3999H120.308Z" fill="#B1B1B1"/>
<path d="M126.516 37.3462H120.522C120.556 37.0435 120.576 36.6983 120.582 36.3105H126.457C126.463 36.6983 126.483 37.0435 126.516 37.3462Z" fill="#B1B1B1"/>
<path d="M128.083 38.3999C127.945 38.7376 127.762 38.9939 127.533 39.169V39.4103H133.993V39.2226C133.84 38.9523 133.756 38.678 133.743 38.3999H128.083Z" fill="#B1B1B1"/>
<path d="M134.038 37.3462H128.335C128.373 37.0453 128.398 36.7001 128.409 36.3105H134.958L134.582 36.6764C134.354 36.9043 134.173 37.1276 134.038 37.3462Z" fill="#B1B1B1"/>
<path d="M142.415 38.3999C142.397 38.6777 142.314 38.9519 142.168 39.2226V39.4103H148.547V39.169C148.332 38.9939 148.152 38.7376 148.007 38.3999H142.415Z" fill="#B1B1B1"/>
<path d="M147.745 37.3462H142.162C142.024 37.1051 141.829 36.8639 141.578 36.6228L141.267 36.3105H147.67C147.682 36.7001 147.707 37.0453 147.745 37.3462Z" fill="#B1B1B1"/>
<path d="M147.663 35.2565V34.2207H139.189L140.219 35.2565H147.663Z" fill="#B1B1B1"/>
<path d="M136.038 35.2565L137.101 34.2207H128.417V35.2565H136.038Z" fill="#B1B1B1"/>
<path d="M126.454 35.2565V34.2207H120.584V35.2565H126.454Z" fill="#B1B1B1"/>
<path d="M117.073 35.2565V34.2207H111.176V35.2565H117.073Z" fill="#B1B1B1"/>
<path d="M109.011 35.2565V34.2207H108.317C108.26 34.2612 108.201 34.2989 108.141 34.3338C108.067 34.3774 107.991 34.4166 107.912 34.4515C107.816 34.4928 107.704 34.5287 107.576 34.5593C107.562 34.5627 107.547 34.566 107.533 34.5693C107.508 34.5749 107.482 34.5803 107.456 34.5855C107.295 34.6391 107.117 34.6659 106.92 34.6659C106.509 34.6659 106.188 34.5677 105.955 34.3711C105.899 34.3231 105.849 34.273 105.806 34.2207H98.6108C98.6114 34.5825 98.6417 34.9278 98.7016 35.2565H109.011Z" fill="#B1B1B1"/>
<path d="M97.775 35.2565C97.8883 34.9291 97.9733 34.5838 98.0298 34.2207H91.2174C90.8598 34.3925 90.4068 34.4784 89.8584 34.4784H88.4913V34.2207H82.5944V35.2565H97.775Z" fill="#B1B1B1"/>
<path d="M82.5919 36.3105C82.5847 36.6983 82.562 37.0435 82.5238 37.3462H96.4495C96.7223 37.077 96.9644 36.7822 97.1759 36.462C97.2095 36.412 97.2423 36.3615 97.2741 36.3105H82.5919Z" fill="#B1B1B1"/>
<path d="M82.5944 33.1666H88.4913V32.1309H82.5944V33.1666Z" fill="#B1B1B1"/>
<path d="M82.5944 31.0772H88.4913V30.0415H82.5944V31.0772Z" fill="#B1B1B1"/>
<path d="M82.5944 28.9875H96.8499C96.58 28.6225 96.265 28.2773 95.9051 27.9517H82.5944V28.9875Z" fill="#B1B1B1"/>
<path d="M82.5944 26.898H94.4595C93.8083 26.5173 93.0616 26.172 92.2192 25.8623H82.5944V26.898Z" fill="#B1B1B1"/>
<path d="M82.5944 24.8082H88.7377L88.4913 24.7374V24.2926C88.4913 24.1107 88.4945 23.9373 88.5009 23.7725H82.5864C82.5918 23.9378 82.5944 24.1112 82.5944 24.2926V24.8082Z" fill="#B1B1B1"/>
<path d="M99.0129 23.7725V24.8082H109.987C109.88 24.4421 109.737 24.0969 109.556 23.7725H99.0129Z" fill="#B1B1B1"/>
<path d="M112.049 23.7725C111.873 24.0974 111.724 24.4427 111.602 24.8082H126.029C125.906 24.4427 125.757 24.0974 125.581 23.7725H112.049Z" fill="#B1B1B1"/>
<path d="M128.409 23.7725C128.415 23.9378 128.417 24.1112 128.417 24.2926V24.8082H134.153V24.2926C134.153 24.1112 134.156 23.9378 134.161 23.7725H128.409Z" fill="#B1B1B1"/>
<path d="M134.247 22.7189H128.324C128.298 22.5394 128.266 22.3761 128.23 22.229C128.177 22.0246 128.112 21.8426 128.037 21.6831H134.534C134.458 21.8426 134.394 22.0246 134.341 22.229C134.304 22.3761 134.273 22.5394 134.247 22.7189Z" fill="#B1B1B1"/>
<path d="M141.945 23.7725C141.951 23.9378 141.953 24.1112 141.953 24.2926V24.8082H147.663V24.2926C147.663 24.1112 147.665 23.9378 147.671 23.7725H141.945Z" fill="#B1B1B1"/>
<path d="M147.756 22.7189H141.86C141.834 22.5394 141.803 22.3761 141.766 22.229C141.713 22.0246 141.647 21.8426 141.568 21.6831H148.048C147.969 21.8426 147.903 22.0246 147.85 22.229C147.814 22.3761 147.782 22.5394 147.756 22.7189Z" fill="#B1B1B1"/>
<path d="M123.763 21.6831H113.877C113.46 21.9843 113.088 22.3295 112.762 22.7189H124.88C124.556 22.3295 124.184 21.9843 123.763 21.6831Z" fill="#B1B1B1"/>
<path d="M147.663 25.8623H141.953V26.898H147.663V25.8623Z" fill="#B1B1B1"/>
<path d="M147.663 27.9517H141.953V28.9875H147.663V27.9517Z" fill="#B1B1B1"/>
<path d="M147.663 30.0415H141.953V30.1511L141.842 30.0415H128.417V31.0772H147.663V30.0415Z" fill="#B1B1B1"/>
<path d="M147.663 32.1309H128.417V33.1666H147.663V32.1309Z" fill="#B1B1B1"/>
<path d="M126.454 33.1666V32.1309H120.584V33.1666H126.454Z" fill="#B1B1B1"/>
<path d="M117.073 33.1666V32.1309H111.176V33.1666H117.073Z" fill="#B1B1B1"/>
<path d="M105.729 33.1666C105.762 33.102 105.802 33.0388 105.848 32.9771C106.027 32.7805 106.313 32.5214 106.706 32.1997L106.799 32.1309H99.0321C98.889 32.4678 98.7823 32.8131 98.7121 33.1666H105.729Z" fill="#B1B1B1"/>
<path d="M98.1137 33.1666C98.114 33.1393 98.1141 33.1118 98.1141 33.0843C98.1141 32.757 98.0963 32.4392 98.0606 32.1309H92.0999C92.1423 32.304 92.1636 32.4878 92.1636 32.6822C92.1636 32.8561 92.1454 33.0176 92.1091 33.1666H98.1137Z" fill="#B1B1B1"/>
<path d="M91.4394 31.0772H97.8591C97.7609 30.7169 97.6343 30.3716 97.4794 30.0415H89.0802L89.2419 30.0825C90.2407 30.3453 90.9732 30.677 91.4394 31.0772Z" fill="#B1B1B1"/>
<path d="M100.579 30.0415C100.214 30.3645 99.898 30.7097 99.6314 31.0772H108.124C108.436 30.7849 108.714 30.4802 108.957 30.1628C108.988 30.1226 109.018 30.0822 109.048 30.0415H100.579Z" fill="#B1B1B1"/>
<path d="M111.176 30.0415V31.0772H117.073V30.0415H111.176Z" fill="#B1B1B1"/>
<path d="M117.073 28.9875H111.176V27.9517H117.082C117.076 28.0422 117.073 28.1358 117.073 28.2328V28.9875Z" fill="#B1B1B1"/>
<path d="M120.584 30.0415V31.0772H126.454V30.0415H120.584Z" fill="#B1B1B1"/>
<path d="M126.454 28.9875H120.584V28.2328C120.584 28.1358 120.581 28.0422 120.575 27.9517H126.454V28.9875Z" fill="#B1B1B1"/>
<path d="M128.417 28.9875H134.153V27.9517H128.417V28.9875Z" fill="#B1B1B1"/>
<path d="M128.417 26.898H134.153V25.8623H128.417V26.898Z" fill="#B1B1B1"/>
<path d="M126.299 25.8623H111.332C111.27 26.1938 111.227 26.539 111.202 26.898H117.355C117.399 26.8191 117.448 26.7459 117.502 26.6784C117.806 26.321 118.243 26.1423 118.815 26.1423C119.387 26.1423 119.825 26.321 120.129 26.6784C120.186 26.7459 120.238 26.8191 120.284 26.898H126.428C126.403 26.539 126.36 26.1938 126.299 25.8623Z" fill="#B1B1B1"/>
<path d="M110.206 26.898C110.213 26.7725 110.217 26.6456 110.217 26.5175C110.217 26.2934 110.207 26.0749 110.186 25.8623H102.631C102.75 25.9163 102.857 25.9829 102.953 26.0619C103.245 26.289 103.405 26.5678 103.432 26.898H110.206Z" fill="#B1B1B1"/>
<path d="M103.092 27.9517C103.082 27.9651 103.071 27.9783 103.06 27.9915C102.85 28.2474 102.48 28.5795 101.953 28.9875H109.674C109.757 28.8107 109.831 28.6305 109.895 28.4472C109.953 28.2846 110.003 28.1195 110.045 27.9517H103.092Z" fill="#B1B1B1"/>
<path d="M100.618 25.8623H99.0129V26.7856H99.2273L99.6294 26.3835C99.7723 26.2763 99.9242 26.1869 100.085 26.1155C100.247 26.0209 100.425 25.9365 100.618 25.8623Z" fill="#B1B1B1"/>
<path d="M136.313 27.9517L135.132 28.9875H140.769L139.715 27.9517H136.313Z" fill="#B1B1B1"/>
<path d="M138.643 26.8978H137.514L138.04 26.437H138.174L138.643 26.8978Z" fill="#B1B1B1"/>
<path d="M0.821594 23.7725H14.0721V24.8082H0.830795V24.2926C0.830795 24.1112 0.827741 23.9378 0.821594 23.7725Z" fill="#B1B1B1"/>
<path d="M152.234 0C151.9 0 151.594 0.056383 151.317 0.169149C151.035 0.277578 150.79 0.433715 150.582 0.637561C150.374 0.83707 150.213 1.07344 150.1 1.34668C149.988 1.61993 149.931 1.91919 149.931 2.24447C149.931 2.56976 149.988 2.86902 150.1 3.14226C150.213 3.4155 150.374 3.65405 150.582 3.85789C150.79 4.0574 151.035 4.21354 151.317 4.32631C151.594 4.43473 151.9 4.48895 152.234 4.48895C152.564 4.48895 152.87 4.43473 153.152 4.32631C153.433 4.21354 153.678 4.0574 153.887 3.85789C154.095 3.65405 154.255 3.4155 154.368 3.14226C154.481 2.86902 154.537 2.56976 154.537 2.24447C154.537 1.91919 154.481 1.61993 154.368 1.34668C154.255 1.07344 154.095 0.83707 153.887 0.637561C153.678 0.433715 153.433 0.277578 153.152 0.169149C152.87 0.056383 152.564 0 152.234 0ZM151.375 3.65622C151.128 3.52176 150.937 3.3331 150.803 3.09022C150.668 2.84734 150.601 2.56542 150.601 2.24447C150.601 1.91919 150.668 1.63727 150.803 1.39873C150.937 1.15585 151.128 0.967184 151.375 0.832733C151.618 0.698281 151.905 0.631055 152.234 0.631055C152.559 0.631055 152.846 0.698281 153.093 0.832733C153.336 0.967184 153.527 1.15585 153.665 1.39873C153.8 1.63727 153.867 1.91919 153.867 2.24447C153.867 2.56542 153.8 2.84734 153.665 3.09022C153.527 3.3331 153.336 3.52176 153.093 3.65622C152.846 3.79067 152.559 3.85789 152.234 3.85789C151.905 3.85789 151.618 3.79067 151.375 3.65622ZM151.551 1.86714H151.597C151.627 1.83245 151.67 1.80425 151.727 1.78257C151.766 1.76956 151.813 1.76305 151.87 1.76305C151.948 1.76305 152.02 1.78257 152.085 1.8216C152.145 1.86064 152.193 1.91268 152.228 1.97774C152.262 2.0428 152.28 2.1187 152.28 2.20544C152.28 2.34423 152.243 2.457 152.169 2.54374C152.091 2.63048 151.989 2.67385 151.863 2.67385C151.798 2.67385 151.742 2.66084 151.694 2.63482C151.673 2.62181 151.653 2.6088 151.636 2.59578C151.614 2.57844 151.599 2.56326 151.59 2.55024H151.545V3.43502C151.584 3.45237 151.638 3.46538 151.707 3.47406C151.772 3.48273 151.842 3.48707 151.915 3.48707C152.184 3.48707 152.423 3.43502 152.631 3.33093C152.835 3.2225 152.995 3.07287 153.112 2.88204C153.23 2.68686 153.288 2.4635 153.288 2.21195C153.288 1.96473 153.234 1.7457 153.125 1.55487C153.017 1.36403 152.865 1.21657 152.67 1.11248C152.475 1.00405 152.254 0.949836 152.006 0.949836C151.946 0.949836 151.894 0.952004 151.85 0.956341C151.807 0.960678 151.768 0.962847 151.733 0.962847C151.668 0.962847 151.607 0.956341 151.551 0.94333V1.86714Z" fill="#B1B1B1"/>
<path fill-rule="evenodd" clip-rule="evenodd" d="M15.0345 15.6348C14.552 14.4375 14.3108 13.1152 14.3108 11.6677C14.3108 10.2203 14.552 8.89797 15.0345 7.70071C15.5348 6.50345 16.2318 5.46702 17.1252 4.59141C18.0366 3.7158 19.0998 3.03676 20.3149 2.55428C21.5479 2.07181 22.906 1.83057 24.3892 1.83057C25.8545 1.83057 27.2037 2.07181 28.4367 2.55428C29.6697 3.03676 30.7329 3.7158 31.6264 4.59141C32.5198 5.46702 33.2078 6.50345 33.6903 7.70071C34.1906 8.89797 34.4408 10.2203 34.4408 11.6677C34.4408 13.1152 34.1906 14.4375 33.6903 15.6348C33.2078 16.832 32.5198 17.8684 31.6264 18.7441C30.7329 19.6197 29.6697 20.2987 28.4367 20.7812C27.2037 21.2637 25.8545 21.5049 24.3892 21.5049C22.906 21.5049 21.5479 21.2637 20.3149 20.7812C19.0998 20.2987 18.0366 19.6197 17.1252 18.7441C16.2318 17.8684 15.5348 16.832 15.0345 15.6348ZM28.2758 11.6677C28.2758 10.8993 28.1061 10.2203 27.7665 9.63062C27.4449 9.04093 26.9892 8.57632 26.3995 8.2368C25.8277 7.89728 25.1576 7.72752 24.3892 7.72752C23.6208 7.72752 22.9418 7.89728 22.3521 8.2368C21.7624 8.57632 21.2978 9.04093 20.9582 9.63062C20.6366 10.2203 20.4758 10.8993 20.4758 11.6677C20.4758 12.4182 20.6366 13.0973 20.9582 13.7048C21.2978 14.2945 21.7624 14.7591 22.3521 15.0987C22.9418 15.4382 23.6208 15.608 24.3892 15.608C25.1576 15.608 25.8277 15.4382 26.3995 15.0987C26.9892 14.7591 27.4449 14.2945 27.7665 13.7048C28.1061 13.0973 28.2758 12.4182 28.2758 11.6677Z" fill="#B1B1B1"/>
<path d="M10.6681 15.6618H6.72788V5.79776C6.72788 4.88641 6.80829 4.1895 6.96912 3.70702C7.12995 3.22454 7.34438 2.87609 7.61242 2.66165V2.42041H0.0804129V2.66165C0.330586 2.89396 0.518217 3.26028 0.643303 3.76063C0.76839 4.24311 0.830934 4.92215 0.830934 5.79776V17.5381C0.830934 18.4137 0.759455 19.1016 0.616499 19.602C0.491412 20.0845 0.285913 20.4419 0 20.6742V20.9154H11.7403C12.1692 20.9154 12.5891 20.9333 13.0001 20.969C13.4111 21.0048 13.7685 21.0673 14.0723 21.1566V14.8308H13.8578C13.6077 15.1167 13.2324 15.3312 12.732 15.4741C12.2496 15.5992 11.5616 15.6618 10.6681 15.6618Z" fill="#B1B1B1"/>
<path d="M46.2812 11.7217C46.4063 12.2042 46.4688 12.8922 46.4688 13.7857V15.8731C46.3623 15.8753 46.2551 15.8764 46.1472 15.8764C45.2358 15.8764 44.4406 15.7156 43.7616 15.3939C43.1004 15.0544 42.5822 14.5809 42.2069 13.9733C41.8496 13.3479 41.6709 12.6241 41.6709 11.8021C41.6709 10.9265 41.8674 10.176 42.2606 9.55062C42.6537 8.92518 43.2344 8.45164 44.0028 8.12999C44.7891 7.79047 45.7451 7.62071 46.8709 7.62071C47.3355 7.62071 47.7465 7.64751 48.1039 7.70112C48.4791 7.75473 48.8187 7.83514 49.1225 7.94236C49.3548 8.01384 49.5781 8.11212 49.7926 8.23721C50.0249 8.34443 50.2304 8.47845 50.4091 8.63927H50.6503V2.07222C50.2572 2.1973 49.864 2.25985 49.4709 2.25985C49.2029 2.25985 48.8187 2.22411 48.3183 2.15263C47.8358 2.08115 47.273 2.04541 46.6297 2.04541C44.3245 2.04541 42.341 2.42961 40.6791 3.198C39.0172 3.96639 37.7396 5.0743 36.8461 6.52173C35.9526 7.96916 35.5059 9.72038 35.5059 11.7753C35.5059 13.6874 35.9526 15.3582 36.8461 16.7877C37.7396 18.2173 38.9815 19.3252 40.5719 20.1115C42.1801 20.8977 44.0475 21.2909 46.174 21.2909C47.3355 21.2909 48.4792 21.2105 49.6049 21.0496C50.7307 20.8888 51.7761 20.6386 52.741 20.2991V20.0579C52.473 19.8434 52.2764 19.5397 52.1513 19.1465C52.0263 18.7534 51.9637 18.1369 51.9637 17.297V13.7857C51.9637 12.8922 52.0263 12.2042 52.1513 11.7217C52.2764 11.2214 52.473 10.8551 52.741 10.6228V10.3815H45.7183V10.6228C45.9685 10.8551 46.1561 11.2214 46.2812 11.7217Z" fill="#B1B1B1"/>
<path fill-rule="evenodd" clip-rule="evenodd" d="M53.7238 15.6348C53.2413 14.4375 53.0001 13.1152 53.0001 11.6677C53.0001 10.2203 53.2413 8.89797 53.7238 7.70071C54.2241 6.50345 54.9211 5.46702 55.8145 4.59141C56.7259 3.7158 57.7891 3.03676 59.0042 2.55428C60.2372 2.07181 61.5953 1.83057 63.0785 1.83057C64.5438 1.83057 65.893 2.07181 67.126 2.55428C68.3589 3.03676 69.4222 3.7158 70.3157 4.59141C71.2091 5.46702 71.8971 6.50345 72.3796 7.70071C72.8799 8.89797 73.1301 10.2203 73.1301 11.6677C73.1301 13.1152 72.8799 14.4375 72.3796 15.6348C71.8971 16.832 71.2091 17.8684 70.3157 18.7441C69.4222 19.6197 68.3589 20.2987 67.126 20.7812C65.893 21.2637 64.5438 21.5049 63.0785 21.5049C61.5953 21.5049 60.2372 21.2637 59.0042 20.7812C57.7891 20.2987 56.7259 19.6197 55.8145 18.7441C54.9211 17.8684 54.2241 16.832 53.7238 15.6348ZM66.9651 11.6677C66.9651 10.8993 66.7954 10.2203 66.4558 9.63062C66.1342 9.04093 65.6785 8.57632 65.0888 8.2368C64.517 7.89728 63.8469 7.72752 63.0785 7.72752C62.3101 7.72752 61.6311 7.89728 61.0414 8.2368C60.4517 8.57632 59.9871 9.04093 59.6475 9.63062C59.3259 10.2203 59.1651 10.8993 59.1651 11.6677C59.1651 12.4182 59.3259 13.0973 59.6475 13.7048C59.9871 14.2945 60.4517 14.7591 61.0414 15.0987C61.6311 15.4382 62.3101 15.608 63.0785 15.608C63.8469 15.608 64.517 15.4382 65.0888 15.0987C65.6785 14.7591 66.1342 14.2945 66.4558 13.7048C66.7954 13.0973 66.9651 12.4182 66.9651 11.6677Z" fill="#B1B1B1"/>
<path d="M74.4096 3.76063C74.5347 4.24311 74.5972 4.92215 74.5972 5.79776V17.5381C74.5972 18.4137 74.5347 19.1016 74.4096 19.602C74.2845 20.0845 74.0969 20.4419 73.8467 20.6742V20.9154H81.2447V20.6742C80.9945 20.4419 80.8069 20.0845 80.6818 19.602C80.5567 19.1016 80.4942 18.4137 80.4942 17.5381V5.79776C80.4942 4.92215 80.5567 4.24311 80.6818 3.76063C80.8069 3.26028 80.9945 2.89396 81.2447 2.66165V2.42041H73.8467V2.66165C74.0969 2.89396 74.2845 3.26028 74.4096 3.76063Z" fill="#B1B1B1"/>
<path fill-rule="evenodd" clip-rule="evenodd" d="M88.7327 19.6288C88.8936 20.1113 89.108 20.4597 89.376 20.6742V20.9154H81.844V20.6742C82.0942 20.4419 82.2818 20.0845 82.4069 19.602C82.532 19.1016 82.5946 18.4137 82.5946 17.5381V5.79776C82.5946 4.92215 82.5231 4.24311 82.3801 3.76063C82.255 3.26028 82.0495 2.89396 81.7636 2.66165V2.42041H90.3678C91.9761 2.42041 93.352 2.67952 94.4957 3.19774C95.6572 3.69809 96.5507 4.4218 97.1761 5.36889C97.8015 6.2981 98.1142 7.42388 98.1142 8.74623C98.1142 10.015 97.8462 11.1408 97.3101 12.1236C96.774 13.1064 95.952 13.9642 94.8441 14.6968C93.7362 15.4116 92.3156 16.0102 90.5822 16.4927L88.4915 17.0932V17.5381C88.4915 18.4494 88.5719 19.1463 88.7327 19.6288ZM89.242 11.7483L88.4915 11.9387V7.35241H89.8585C90.609 7.35241 91.1809 7.51323 91.574 7.83488C91.9671 8.13867 92.1637 8.57647 92.1637 9.1483C92.1637 9.7916 91.9314 10.3188 91.4668 10.7298C91.0022 11.1408 90.2606 11.4803 89.242 11.7483Z" fill="#B1B1B1"/>
<path d="M108.797 7.96894H109.011V2.1792C108.654 2.30429 108.323 2.36683 108.019 2.36683C107.823 2.36683 107.528 2.34003 107.135 2.28642C106.742 2.23281 106.304 2.20601 105.821 2.20601C103.534 2.20601 101.756 2.69742 100.487 3.68025C99.2364 4.6452 98.611 5.95861 98.611 7.62048C98.611 8.47822 98.8075 9.29128 99.2007 10.0597C99.5938 10.8102 100.166 11.4803 100.916 12.07L101.64 12.6061C102.337 13.1243 102.81 13.5353 103.06 13.8391C103.311 14.1429 103.436 14.4734 103.436 14.8308C103.436 15.2061 103.275 15.5188 102.953 15.769C102.649 16.0192 102.23 16.1442 101.693 16.1442C101.39 16.1442 101.095 16.1085 100.809 16.037C100.541 15.9477 100.3 15.8405 100.085 15.7154C99.9244 15.6439 99.7725 15.5545 99.6295 15.4473L99.2275 15.0453H99.013V20.701C99.3704 20.8261 99.8976 20.9243 100.594 20.9958C101.309 21.0852 102.006 21.1298 102.685 21.1298C105.098 21.1298 106.956 20.6116 108.261 19.5752C109.565 18.5209 110.217 17.1003 110.217 15.3133C110.217 14.6343 110.11 13.991 109.896 13.3834C109.681 12.7758 109.368 12.204 108.957 11.6679C108.546 11.1318 108.037 10.6315 107.43 10.1669L106.706 9.6308C106.313 9.30915 106.027 9.05004 105.848 8.85348C105.687 8.63904 105.607 8.40674 105.607 8.15657C105.607 7.88852 105.723 7.65622 105.955 7.45965C106.188 7.26309 106.509 7.16481 106.92 7.16481C107.117 7.16481 107.296 7.19161 107.456 7.24522C107.635 7.28096 107.787 7.32563 107.912 7.37924C108.073 7.45072 108.225 7.54007 108.368 7.64728C108.529 7.73663 108.672 7.84385 108.797 7.96894Z" fill="#B1B1B1"/>
<path d="M111.176 5.79776C111.176 4.92215 111.114 4.24311 110.988 3.76063C110.863 3.26028 110.676 2.89396 110.426 2.66165V2.42041H117.797V2.66165C117.547 2.89396 117.359 3.26028 117.234 3.76063C117.127 4.24311 117.073 4.92215 117.073 5.79776V13.5978C117.073 14.2769 117.216 14.7951 117.502 15.1525C117.806 15.5099 118.244 15.6886 118.815 15.6886C119.387 15.6886 119.825 15.5099 120.129 15.1525C120.433 14.7951 120.584 14.2769 120.584 13.5978V5.79776C120.584 4.92215 120.522 4.24311 120.397 3.76063C120.29 3.26028 120.102 2.89396 119.834 2.66165V2.42041H127.232V2.66165C126.964 2.89396 126.767 3.26028 126.642 3.76063C126.517 4.24311 126.455 4.92215 126.455 5.79776V14.1607C126.455 15.7154 126.151 17.0377 125.543 18.1278C124.954 19.2178 124.087 20.0577 122.943 20.6474C121.817 21.2192 120.441 21.5051 118.815 21.5051C117.207 21.5051 115.831 21.2192 114.687 20.6474C113.562 20.0577 112.695 19.2178 112.087 18.1278C111.48 17.0377 111.176 15.7154 111.176 14.1607V5.79776Z" fill="#B1B1B1"/>
<path d="M128.203 3.78743C128.346 4.30565 128.417 5.06511 128.417 6.0658V17.5381C128.417 18.4137 128.355 19.1016 128.23 19.602C128.105 20.0845 127.917 20.4419 127.667 20.6742V20.9154H134.904V20.6742C134.654 20.4419 134.466 20.0845 134.341 19.602C134.216 19.1016 134.153 18.4137 134.153 17.5381V11.9852L138.04 15.3937H138.174L141.954 11.6798V17.5381C141.954 18.4137 141.891 19.1016 141.766 19.602C141.641 20.0845 141.444 20.4419 141.176 20.6742V20.9154H148.44V20.6742C148.172 20.4419 147.976 20.0845 147.85 19.602C147.725 19.1016 147.663 18.4137 147.663 17.5381V6.0658C147.663 5.06511 147.734 4.30565 147.877 3.78743C148.038 3.26922 148.261 2.89396 148.547 2.66165V2.42041H142.168V2.60804C142.4 3.03691 142.472 3.47472 142.382 3.92146C142.293 4.35032 142.025 4.77919 141.578 5.20806L138.161 8.64334L134.582 5.15445C134.136 4.70771 133.868 4.27885 133.778 3.86785C133.689 3.43898 133.76 3.01904 133.993 2.60804V2.42041H127.533V2.66165C127.837 2.89396 128.06 3.26922 128.203 3.78743Z" fill="#B1B1B1"/>
</g>
<defs>
<clipPath id="clip0_83_474">
<rect width="155" height="40" fill="white"/>
</clipPath>
</defs>
</svg>
