<svg width="81" height="40" viewBox="0 0 81 40" fill="none" xmlns="http://www.w3.org/2000/svg">
<g clip-path="url(#clip0_83_629)">
<path d="M75.7442 1.27002C74.542 0.683166 73.192 0.354004 71.7651 0.354004C70.3387 0.354004 68.9887 0.683166 67.7865 1.27002H75.7442Z" fill="url(#paint0_linear_83_629)"/>
<path d="M66.8163 1.81992C66.9128 1.75705 67.0108 1.69597 67.1096 1.63672H76.4205C76.95 1.95316 77.4447 2.32194 77.8977 2.73594H65.6329C65.7006 2.67385 65.7697 2.61277 65.8392 2.55274H56.7219C56.7659 2.51474 56.8107 2.47716 56.8556 2.44H47.8746C48.0325 2.31261 48.1945 2.19039 48.3611 2.0736H57.3288C57.45 1.9861 57.5731 1.90151 57.6985 1.81992H66.8163Z" fill="url(#paint1_linear_83_629)"/>
<path d="M79.1933 4.20127C78.9165 3.811 78.6094 3.44348 78.2762 3.10205H65.254C65.1954 3.16231 65.1373 3.22339 65.0801 3.28526H55.9628C55.8859 3.36839 55.8109 3.45297 55.7372 3.53893H46.7311C46.6267 3.65835 46.5251 3.78052 46.4268 3.90533H55.4388C55.41 3.94268 55.3816 3.98026 55.3532 4.01807H64.4705C64.4252 4.07856 64.3808 4.13963 64.3374 4.20127H79.1933Z" fill="url(#paint2_linear_83_629)"/>
<path d="M63.9759 4.75107C64.0134 4.6895 64.0514 4.62845 64.0903 4.56787H79.4405C79.6647 4.91861 79.8661 5.28573 80.0422 5.66711H63.4885C63.5169 5.60564 63.5457 5.54458 63.5754 5.48389H54.4581C54.4764 5.44615 54.4952 5.40858 54.514 5.37116H45.4832C45.5471 5.24734 45.6138 5.12518 45.6831 5.00477H54.7098C54.7583 4.91934 54.8078 4.83474 54.8586 4.75107H63.9759Z" fill="url(#paint3_linear_83_629)"/>
<path d="M80.5717 7.13242C80.471 6.75587 80.347 6.38893 80.2015 6.0332H63.3292C63.3045 6.09394 63.2802 6.155 63.2564 6.21642H54.1391C54.1066 6.30038 54.0755 6.38493 54.0458 6.47008H45.0039C44.9604 6.59104 44.9193 6.7132 44.8807 6.83647H53.9259C53.9144 6.87394 53.9035 6.91155 53.8925 6.9492H63.0098C62.9924 7.01003 62.9755 7.07109 62.959 7.13242H80.5717Z" fill="url(#paint4_linear_83_629)"/>
<path d="M62.8299 7.68224C62.8428 7.62095 62.8556 7.5599 62.8693 7.49902H80.6614C80.7415 7.85792 80.801 8.22482 80.8376 8.59824H62.6927C62.6991 8.537 62.7055 8.47594 62.7128 8.41507H53.5955C53.5996 8.37741 53.6046 8.33981 53.6092 8.30233H44.552C44.5692 8.17939 44.5887 8.05723 44.6107 7.9359H53.665C53.6797 7.85093 53.6957 7.76638 53.7126 7.68224H62.8299Z" fill="url(#paint5_linear_83_629)"/>
<path d="M80.8829 9.51445C80.8829 9.69896 80.8774 9.88222 80.8664 10.0641H62.6639C62.6602 10.0031 62.6574 9.94209 62.6552 9.88084H53.5374C53.536 9.84333 53.5346 9.80576 53.5337 9.76811H44.4652C44.464 9.70719 44.4634 9.64613 44.4634 9.58489C44.4634 9.52369 44.464 9.46264 44.4652 9.40172H53.531C53.5319 9.31684 53.5342 9.23229 53.5374 9.14802H62.6552C62.6574 9.08682 62.6602 9.02572 62.6639 8.96484H80.8664C80.8774 9.14664 80.8829 9.3299 80.8829 9.51445Z" fill="url(#paint6_linear_83_629)"/>
<path d="M80.8376 10.4302C80.801 10.8036 80.7415 11.1705 80.6614 11.5294H62.8693C62.8556 11.4686 62.8428 11.4075 62.8299 11.3462H53.7126C53.7053 11.3087 53.698 11.2711 53.6907 11.2334H44.6107C44.5887 11.1122 44.5692 10.99 44.552 10.867H53.6289C53.6165 10.7829 53.6056 10.6983 53.5955 10.6134H62.7128C62.7055 10.5525 62.6991 10.4914 62.6927 10.4302H80.8376Z" fill="url(#paint7_linear_83_629)"/>
<path d="M63.2564 12.812C63.2802 12.8734 63.3045 12.9345 63.3292 12.9952H80.2015C80.347 12.6395 80.471 12.2725 80.5717 11.896H62.959C62.9755 11.9573 62.9924 12.0184 63.0098 12.0792H53.8925C53.9172 12.1643 53.9428 12.2489 53.9703 12.3329H44.8807C44.9193 12.4562 44.9604 12.5783 45.0039 12.6993H54.0966C54.1103 12.737 54.1245 12.7746 54.1391 12.812H63.2564Z" fill="url(#paint8_linear_83_629)"/>
<path d="M80.0422 13.3613C79.8661 13.7427 79.6647 14.1098 79.4405 14.4605H64.0903C64.0514 14.3999 64.0134 14.3389 63.9759 14.2773H54.8586C54.8357 14.2399 54.8133 14.2023 54.7913 14.1646H45.6831C45.6138 14.0442 45.5471 13.922 45.4832 13.7982H54.5867C54.5428 13.7144 54.4998 13.6298 54.4581 13.5445H63.5754C63.5457 13.4838 63.5169 13.4228 63.4885 13.3613H80.0422Z" fill="url(#paint9_linear_83_629)"/>
<path d="M65.0801 15.7432C65.1373 15.805 65.1954 15.8661 65.254 15.9264H78.2762C78.6094 15.5849 78.9165 15.2174 79.1933 14.8271H64.3374C64.3808 14.8888 64.4252 14.9499 64.4705 15.0104H55.3532C55.4173 15.0961 55.4827 15.1807 55.55 15.264H46.4268C46.5251 15.3888 46.6267 15.511 46.7311 15.6305H55.8603C55.8942 15.6683 55.9285 15.7059 55.9628 15.7432H65.0801Z" fill="url(#paint10_linear_83_629)"/>
<path d="M77.8977 16.293C77.4447 16.7069 76.95 17.0757 76.4205 17.3922H67.1096C67.0108 17.3329 66.9128 17.2718 66.8163 17.209H57.6985C57.6418 17.172 57.5855 17.1344 57.5297 17.0962H48.3611C48.1945 16.9795 48.0325 16.8572 47.8746 16.7298H57.0299C56.9256 16.6475 56.8226 16.5629 56.7219 16.4761H65.8392C65.7697 16.4161 65.7006 16.355 65.6329 16.293H77.8977Z" fill="url(#paint11_linear_83_629)"/>
<path d="M67.7865 17.7583C68.9887 18.3452 70.3387 18.6743 71.7651 18.6743C73.192 18.6743 74.542 18.3452 75.7442 17.7583H67.7865Z" fill="url(#paint12_linear_83_629)"/>
<path d="M56.6986 0.974413C55.7262 0.618786 54.6759 0.424805 53.5808 0.424805C52.4857 0.424805 51.4355 0.618786 50.463 0.974413H56.6986Z" fill="url(#paint13_linear_83_629)"/>
<path d="M50.463 18.1953C51.4355 18.5509 52.4857 18.7449 53.5808 18.7449C54.6759 18.7449 55.7262 18.5509 56.6986 18.1953H50.463Z" fill="url(#paint14_linear_83_629)"/>
<path d="M62.6478 0.354004C63.9182 0.354004 65.1282 0.615106 66.2269 1.08682H59.0687C60.1675 0.615106 61.3775 0.354004 62.6478 0.354004Z" fill="url(#paint15_linear_83_629)"/>
<path d="M62.6478 18.6747C61.3775 18.6747 60.1675 18.4136 59.0687 17.9419H66.2269C65.1282 18.4136 63.9182 18.6747 62.6478 18.6747Z" fill="url(#paint16_linear_83_629)"/>
<path d="M78.3147 39.7256V36.4668H78.7911V39.7256H78.3147ZM80.153 39.7256L78.6149 38.1273V38.0747L80.1722 36.4668H80.7676L79.0483 38.2422L79.0959 37.9599L80.7964 39.7256H80.153Z" fill="#7D919C"/>
<path d="M75.3607 39.7256V36.4668H76.5519C76.7739 36.4668 76.9679 36.5147 77.1326 36.6103C77.3011 36.7029 77.4315 36.8289 77.5235 36.9884C77.6154 37.1479 77.6617 37.3266 77.6617 37.5244C77.6617 37.7222 77.6154 37.9008 77.5235 38.0603C77.4315 38.2199 77.3011 38.3459 77.1326 38.4384C76.9679 38.5309 76.7739 38.5771 76.5519 38.5771H75.7515V38.1273H76.4709C76.6805 38.1273 76.8485 38.0747 76.9757 37.9694C77.1024 37.861 77.1661 37.7126 77.1661 37.5244C77.1661 37.3234 77.1024 37.1719 76.9757 37.0697C76.8485 36.9677 76.6805 36.9166 76.4709 36.9166H75.747L75.8371 36.8066V39.7256H75.3607ZM77.1711 39.7256L76.4137 38.3714H76.9377L77.6951 39.7256H77.1711Z" fill="#7D919C"/>
<path d="M71.4567 38.0987C71.4567 37.8563 71.4983 37.6329 71.5807 37.4287C71.6663 37.2246 71.7857 37.0476 71.9381 36.8976C72.0905 36.7476 72.268 36.6312 72.4712 36.5482C72.6776 36.4653 72.9019 36.4238 73.143 36.4238C73.381 36.4238 73.602 36.4653 73.8052 36.5482C74.0084 36.6312 74.1846 36.7476 74.3338 36.8976C74.4862 37.0476 74.6038 37.2246 74.6861 37.4287C74.7722 37.6329 74.8147 37.8563 74.8147 38.0987C74.8147 38.338 74.7722 38.5597 74.6861 38.7639C74.6038 38.9681 74.4862 39.1467 74.3338 39.2999C74.1846 39.4498 74.0084 39.5663 73.8052 39.6492C73.602 39.7321 73.381 39.7736 73.143 39.7736C72.9019 39.7736 72.6776 39.7321 72.4712 39.6492C72.268 39.5663 72.0905 39.4498 71.9381 39.2999C71.7857 39.1467 71.6663 38.9681 71.5807 38.7639C71.4983 38.5597 71.4567 38.338 71.4567 38.0987ZM71.9427 38.0987C71.9427 38.3316 71.9948 38.5406 72.0996 38.7256C72.2044 38.9075 72.3477 39.051 72.5284 39.1563C72.7097 39.2616 72.9142 39.3142 73.143 39.3142C73.3714 39.3142 73.575 39.2616 73.7526 39.1563C73.9306 39.051 74.0702 38.9075 74.1718 38.7256C74.2766 38.5406 74.3292 38.3316 74.3292 38.0987C74.3292 37.8626 74.2766 37.6537 74.1718 37.4718C74.0702 37.29 73.9306 37.1464 73.7526 37.0412C73.575 36.9359 73.3714 36.8832 73.143 36.8832C72.9142 36.8832 72.7097 36.9359 72.5284 37.0412C72.3477 37.1464 72.2044 37.29 72.0996 37.4718C71.9948 37.6537 71.9427 37.8626 71.9427 38.0987Z" fill="#7D919C"/>
<path d="M69.8741 39.7256L68.9831 36.8209L68.8738 36.4668H69.3406L70.2503 39.4864L70.0407 39.4385L70.8315 36.4668H71.3125L70.4315 39.7256H69.8741ZM67.7832 39.7256L66.9019 36.4668H67.3828L68.1736 39.4385L67.964 39.4864L68.8738 36.4668H69.3406L69.2312 36.8209L68.3402 39.7256H67.7832Z" fill="#7D919C"/>
<path d="M65.222 39.7256V36.8257H65.6984V39.7256H65.222ZM64.2074 36.9166V36.4668H66.7605V36.9166H64.2074Z" fill="#7D919C"/>
<path d="M62.3082 38.314V37.8641H63.6184V38.314H62.3082ZM62.294 36.9166L62.4039 36.7635V39.3476L62.2703 39.271H63.8994V39.7256H61.9275V36.4668H63.8994V36.9166H62.294Z" fill="#7D919C"/>
<path d="M60.7115 39.7256L58.6156 36.9932L58.8824 36.9166V39.7256H58.406V36.4668H58.811L60.8355 39.1036H60.6401V36.4668H61.1165V39.7256H60.7115Z" fill="#7D919C"/>
<path d="M36.8713 24.2744V33.0811H39.4885V24.2744H36.8713Z" fill="#B1B1B1"/>
<path d="M37.0505 20.3663C36.7757 20.6545 36.6382 21.0327 36.6382 21.5009C36.6382 21.9572 36.7757 22.3293 37.0505 22.6175C37.3373 22.8936 37.7137 23.0317 38.1798 23.0317C38.6459 23.0317 39.0163 22.8936 39.2912 22.6175C39.578 22.3293 39.7214 21.9572 39.7214 21.5009C39.7214 21.0327 39.578 20.6545 39.2912 20.3663C39.0163 20.0781 38.6459 19.9341 38.1798 19.9341C37.7137 19.9341 37.3373 20.0781 37.0505 20.3663Z" fill="#B1B1B1"/>
<path d="M51.7008 32.9371C52.3223 33.2133 52.9854 33.3513 53.6906 33.3513C54.3596 33.3513 54.9573 33.2313 55.4831 32.9912C56.0089 32.7511 56.4213 32.4149 56.7201 31.9826C57.0189 31.5384 57.1681 31.0281 57.1681 30.4518C57.1681 29.7074 56.9292 29.1131 56.451 28.6689C55.9851 28.2246 55.2085 27.8704 54.1208 27.6063C53.4755 27.4502 53.0453 27.3122 52.8303 27.1921C52.6152 27.072 52.5076 26.9219 52.5076 26.7418C52.5076 26.5498 52.5973 26.4057 52.7762 26.3096C52.9556 26.2136 53.1707 26.1655 53.422 26.1655C53.8878 26.1655 54.3061 26.2496 54.6768 26.4176C55.047 26.5857 55.3637 26.7899 55.6268 27.03L57.2399 25.6432C56.8574 25.187 56.3737 24.8028 55.7879 24.4907C55.2026 24.1665 54.4914 24.0044 53.6549 24.0044C52.9497 24.0044 52.3401 24.1364 51.8262 24.4006C51.3123 24.6647 50.9183 25.0189 50.6433 25.4632C50.3682 25.8954 50.2309 26.3757 50.2309 26.9039C50.2309 27.6363 50.452 28.2246 50.894 28.6689C51.3485 29.1011 52.0354 29.4313 52.9556 29.6594C53.4577 29.7914 53.8402 29.9055 54.1029 30.0016C54.366 30.0976 54.545 30.1937 54.6406 30.2897C54.7363 30.3858 54.7843 30.5059 54.7843 30.6499C54.7843 30.818 54.7006 30.9621 54.5331 31.0821C54.3779 31.1902 54.1688 31.2442 53.9057 31.2442C53.4636 31.2442 53.0572 31.1542 52.687 30.9741C52.3163 30.794 51.9278 30.4938 51.5214 30.0736L50.0337 31.5144C50.5357 32.1867 51.0913 32.6609 51.7008 32.9371Z" fill="#B1B1B1"/>
<path d="M67.3495 33.0814V24.2747H69.2857L69.5951 25.2804C69.6843 25.2033 69.7763 25.128 69.871 25.0547C69.8966 25.0346 69.9227 25.0148 69.9488 24.9951C70.3314 24.7069 70.7497 24.4788 71.2036 24.3107C71.6576 24.1426 72.1299 24.0586 72.62 24.0586C73.2053 24.0586 73.6716 24.1607 74.018 24.3648C74.3763 24.5568 74.6454 24.827 74.8248 25.1752C74.8514 25.2242 74.877 25.2741 74.9012 25.325C75.0321 25.211 75.168 25.101 75.3085 24.9951C75.6911 24.7069 76.1034 24.4788 76.5455 24.3107C76.9995 24.1426 77.4717 24.0586 77.9614 24.0586C78.5472 24.0586 79.0194 24.1607 79.3778 24.3648C79.7361 24.5568 80.0052 24.827 80.1846 25.1752C80.3635 25.5234 80.4893 25.9196 80.5607 26.3638C80.6326 26.796 80.6683 27.2463 80.6683 27.7145V33.0814H78.0332V27.8586C78.0332 27.3544 77.9435 27.0242 77.7646 26.8681C77.5971 26.7 77.382 26.6159 77.1189 26.6159C76.7368 26.6159 76.3661 26.73 76.0078 26.9581C75.7561 27.1097 75.5227 27.2938 75.3062 27.5103C75.3081 27.578 75.3085 27.646 75.3085 27.7145V33.0814H72.6914V27.8586C72.6914 27.3544 72.6017 27.0242 72.4227 26.8681C72.2434 26.7 72.0223 26.6159 71.7592 26.6159C71.389 26.6159 71.0242 26.73 70.6659 26.9581C70.4151 27.1092 70.1822 27.2925 69.9667 27.508V33.0814H67.3495Z" fill="#B1B1B1"/>
<path d="M60.9193 33.2972C60.2741 33.2972 59.7482 33.2011 59.3419 33.009C58.9479 32.8169 58.6371 32.5528 58.4097 32.2166C58.1946 31.8684 58.0454 31.4782 57.9617 31.046C57.8898 30.6017 57.8541 30.1335 57.8541 29.6412V24.2744H60.4713V29.4972C60.4713 29.9894 60.5729 30.3196 60.7761 30.4877C60.9793 30.6438 61.23 30.7219 61.5289 30.7219C61.792 30.7219 62.0487 30.6798 62.3 30.5957C62.5508 30.4997 62.7956 30.3677 63.0345 30.1996C63.1608 30.1045 63.2802 29.9994 63.3932 29.8843V24.2744H66.0283V33.0811H64.0742L63.7662 32.0804C63.6582 32.1755 63.5461 32.2689 63.4289 32.3607C63.0587 32.6488 62.6642 32.8769 62.246 33.045C61.8277 33.2131 61.3856 33.2972 60.9193 33.2972Z" fill="#B1B1B1"/>
<path fill-rule="evenodd" clip-rule="evenodd" d="M45.689 33.2975C44.9123 33.2975 44.2371 33.1234 43.6634 32.7752C43.5959 32.7319 43.5302 32.6862 43.4663 32.6382V36.5032H40.8491V24.2747H42.803L43.0614 25.1517C43.2533 24.9466 43.4659 24.7683 43.6993 24.6169C44.2729 24.2447 44.9421 24.0586 45.707 24.0586C46.5078 24.0586 47.2066 24.2567 47.8042 24.6529C48.4138 25.0371 48.8856 25.5774 49.2206 26.2738C49.567 26.9701 49.7404 27.7745 49.7404 28.6871C49.7404 29.5876 49.567 30.386 49.2206 31.0823C48.8737 31.7787 48.3959 32.3249 47.7864 32.7212C47.1768 33.1054 46.4776 33.2975 45.689 33.2975ZM45.205 30.8302C45.7428 30.8302 46.1851 30.6321 46.5316 30.2359C46.8899 29.8277 47.0693 29.3114 47.0693 28.6871C47.0693 28.0507 46.8899 27.5344 46.5316 27.1382C46.1851 26.73 45.7428 26.5259 45.205 26.5259C44.6792 26.5259 44.2371 26.73 43.8786 27.1382C43.5201 27.5344 43.3408 28.0447 43.3408 28.669C43.3408 29.3054 43.5201 29.8277 43.8786 30.2359C44.2371 30.6321 44.6792 30.8302 45.205 30.8302Z" fill="#B1B1B1"/>
<path fill-rule="evenodd" clip-rule="evenodd" d="M31.3945 33.2975C30.4863 33.2975 29.6856 33.1054 28.9925 32.7212C28.2994 32.3249 27.7616 31.7787 27.3792 31.0823C26.9967 30.386 26.8055 29.5876 26.8055 28.6871C26.8055 27.7745 26.9967 26.9701 27.3792 26.2738C27.7616 25.5774 28.2994 25.0371 28.9925 24.6529C29.6856 24.2567 30.4863 24.0586 31.3945 24.0586C32.3147 24.0586 33.1213 24.2567 33.8145 24.6529C34.5076 25.0371 35.0453 25.5774 35.4278 26.2738C35.8221 26.9701 36.0193 27.7745 36.0193 28.6871C36.0193 29.5876 35.8221 30.386 35.4278 31.0823C35.0453 31.7787 34.5076 32.3249 33.8145 32.7212C33.1213 33.1054 32.3147 33.2975 31.3945 33.2975ZM31.3945 30.7401C31.9801 30.7401 32.4521 30.5541 32.8106 30.1819C33.1811 29.7976 33.3663 29.2993 33.3663 28.6871C33.3663 28.0627 33.1811 27.5584 32.8106 27.1743C32.4521 26.79 31.9801 26.5979 31.3945 26.5979C30.8328 26.5979 30.3668 26.79 29.9963 27.1743C29.6378 27.5464 29.4585 28.0447 29.4585 28.669C29.4585 29.2934 29.6378 29.7976 29.9963 30.1819C30.3668 30.5541 30.8328 30.7401 31.3945 30.7401Z" fill="#B1B1B1"/>
<path fill-rule="evenodd" clip-rule="evenodd" d="M20.1134 36.4672C20.6033 36.6113 21.0813 36.6833 21.5474 36.6833C22.4915 36.6833 23.2981 36.4972 23.9674 36.125C24.6486 35.7528 25.1684 35.2005 25.5269 34.4681C25.8854 33.7357 26.0647 32.8533 26.0647 31.8208V24.2747H24.1108L23.8217 25.2401C23.6071 24.9921 23.3629 24.7784 23.089 24.5989C22.5393 24.2387 21.9 24.0586 21.171 24.0586C20.3942 24.0586 19.7011 24.2447 19.0916 24.6169C18.4821 24.977 18.0041 25.4813 17.6576 26.1297C17.3229 26.766 17.1556 27.5044 17.1556 28.3448C17.1556 29.1733 17.3289 29.9117 17.6755 30.5601C18.034 31.2083 18.512 31.7126 19.1095 32.0728C19.719 32.433 20.4181 32.6132 21.2068 32.6132C21.9477 32.6132 22.5871 32.4451 23.1248 32.1089C23.1815 32.0729 23.2369 32.0355 23.2909 31.9966C23.3116 31.9816 23.3321 31.9665 23.3524 31.9511C23.3846 31.9267 23.4163 31.9018 23.4475 31.8762V32.379C23.4475 33.0874 23.2743 33.6157 22.9277 33.9638C22.5811 34.3241 22.133 34.5042 21.5833 34.5042C21.1052 34.5042 20.7109 34.402 20.4002 34.198C20.1014 33.9939 19.8026 33.6577 19.5039 33.1894L17.6217 34.162L17.7651 34.4681C18.04 35.0084 18.3806 35.4406 18.7869 35.7648C19.1932 36.101 19.6353 36.3351 20.1134 36.4672ZM23.0532 29.7496C22.7066 30.1218 22.2585 30.3079 21.7088 30.3079C21.159 30.3079 20.7049 30.1218 20.3464 29.7496C19.9998 29.3774 19.8265 28.9092 19.8265 28.3448C19.8265 27.7566 19.9998 27.2763 20.3464 26.9041C20.7049 26.5319 21.159 26.3458 21.7088 26.3458C22.2585 26.3458 22.7066 26.5319 23.0532 26.9041C23.4117 27.2763 23.5909 27.7566 23.5909 28.3448C23.5909 28.9092 23.4117 29.3774 23.0532 29.7496Z" fill="#B1B1B1"/>
<path fill-rule="evenodd" clip-rule="evenodd" d="M12.3389 33.2975C11.4306 33.2975 10.63 33.1054 9.93683 32.7212C9.24371 32.3249 8.70591 31.7787 8.32351 31.0823C7.94107 30.386 7.74988 29.5876 7.74988 28.6871C7.74988 27.7745 7.94107 26.9701 8.32351 26.2738C8.70591 25.5774 9.24371 25.0371 9.93683 24.6529C10.63 24.2567 11.4306 24.0586 12.3389 24.0586C13.259 24.0586 14.0657 24.2567 14.7588 24.6529C15.4519 25.0371 15.9897 25.5774 16.3721 26.2738C16.7665 26.9701 16.9637 27.7745 16.9637 28.6871C16.9637 29.5876 16.7665 30.386 16.3721 31.0823C15.9897 31.7787 15.4519 32.3249 14.7588 32.7212C14.0657 33.1054 13.259 33.2975 12.3389 33.2975ZM12.3389 30.7401C12.9244 30.7401 13.3964 30.5541 13.755 30.1819C14.1254 29.7976 14.3106 29.2993 14.3106 28.6871C14.3106 28.0627 14.1254 27.5584 13.755 27.1743C13.3964 26.79 12.9244 26.5979 12.3389 26.5979C11.7772 26.5979 11.3111 26.79 10.9406 27.1743C10.5821 27.5464 10.4029 28.0447 10.4029 28.669C10.4029 29.2934 10.5821 29.7976 10.9406 30.1819C11.3111 30.5541 11.7772 30.7401 12.3389 30.7401Z" fill="#B1B1B1"/>
<path d="M0.16272 33.081H7.58394V30.5416H2.77986V20.8164H0.16272V33.081Z" fill="#B1B1B1"/>
</g>
<defs>
<linearGradient id="paint0_linear_83_629" x1="44.4634" y1="8.43354" x2="79.9205" y2="8.43354" gradientUnits="userSpaceOnUse">
<stop stop-color="#0046F9"/>
<stop offset="0.197917" stop-color="#16DBF6"/>
<stop offset="0.401042" stop-color="#FFE713"/>
<stop offset="0.604167" stop-color="#FF7917"/>
<stop offset="0.802083" stop-color="#FB0000"/>
<stop offset="1" stop-color="#B30000"/>
</linearGradient>
<linearGradient id="paint1_linear_83_629" x1="44.4633" y1="8.43384" x2="79.9204" y2="8.43384" gradientUnits="userSpaceOnUse">
<stop stop-color="#0046F9"/>
<stop offset="0.197917" stop-color="#16DBF6"/>
<stop offset="0.401042" stop-color="#FFE713"/>
<stop offset="0.604167" stop-color="#FF7917"/>
<stop offset="0.802083" stop-color="#FB0000"/>
<stop offset="1" stop-color="#B30000"/>
</linearGradient>
<linearGradient id="paint2_linear_83_629" x1="44.4634" y1="8.43354" x2="79.9205" y2="8.43354" gradientUnits="userSpaceOnUse">
<stop stop-color="#0046F9"/>
<stop offset="0.197917" stop-color="#16DBF6"/>
<stop offset="0.401042" stop-color="#FFE713"/>
<stop offset="0.604167" stop-color="#FF7917"/>
<stop offset="0.802083" stop-color="#FB0000"/>
<stop offset="1" stop-color="#B30000"/>
</linearGradient>
<linearGradient id="paint3_linear_83_629" x1="44.4634" y1="8.43373" x2="79.9205" y2="8.43373" gradientUnits="userSpaceOnUse">
<stop stop-color="#0046F9"/>
<stop offset="0.197917" stop-color="#16DBF6"/>
<stop offset="0.401042" stop-color="#FFE713"/>
<stop offset="0.604167" stop-color="#FF7917"/>
<stop offset="0.802083" stop-color="#FB0000"/>
<stop offset="1" stop-color="#B30000"/>
</linearGradient>
<linearGradient id="paint4_linear_83_629" x1="44.4633" y1="8.43343" x2="79.9205" y2="8.43343" gradientUnits="userSpaceOnUse">
<stop stop-color="#0046F9"/>
<stop offset="0.197917" stop-color="#16DBF6"/>
<stop offset="0.401042" stop-color="#FFE713"/>
<stop offset="0.604167" stop-color="#FF7917"/>
<stop offset="0.802083" stop-color="#FB0000"/>
<stop offset="1" stop-color="#B30000"/>
</linearGradient>
<linearGradient id="paint5_linear_83_629" x1="44.4634" y1="8.43364" x2="79.9205" y2="8.43364" gradientUnits="userSpaceOnUse">
<stop stop-color="#0046F9"/>
<stop offset="0.197917" stop-color="#16DBF6"/>
<stop offset="0.401042" stop-color="#FFE713"/>
<stop offset="0.604167" stop-color="#FF7917"/>
<stop offset="0.802083" stop-color="#FB0000"/>
<stop offset="1" stop-color="#B30000"/>
</linearGradient>
<linearGradient id="paint6_linear_83_629" x1="44.4634" y1="8.43381" x2="79.9205" y2="8.43381" gradientUnits="userSpaceOnUse">
<stop stop-color="#0046F9"/>
<stop offset="0.197917" stop-color="#16DBF6"/>
<stop offset="0.401042" stop-color="#FFE713"/>
<stop offset="0.604167" stop-color="#FF7917"/>
<stop offset="0.802083" stop-color="#FB0000"/>
<stop offset="1" stop-color="#B30000"/>
</linearGradient>
<linearGradient id="paint7_linear_83_629" x1="44.4634" y1="8.43353" x2="79.9205" y2="8.43353" gradientUnits="userSpaceOnUse">
<stop stop-color="#0046F9"/>
<stop offset="0.197917" stop-color="#16DBF6"/>
<stop offset="0.401042" stop-color="#FFE713"/>
<stop offset="0.604167" stop-color="#FF7917"/>
<stop offset="0.802083" stop-color="#FB0000"/>
<stop offset="1" stop-color="#B30000"/>
</linearGradient>
<linearGradient id="paint8_linear_83_629" x1="44.4633" y1="8.43374" x2="79.9205" y2="8.43374" gradientUnits="userSpaceOnUse">
<stop stop-color="#0046F9"/>
<stop offset="0.197917" stop-color="#16DBF6"/>
<stop offset="0.401042" stop-color="#FFE713"/>
<stop offset="0.604167" stop-color="#FF7917"/>
<stop offset="0.802083" stop-color="#FB0000"/>
<stop offset="1" stop-color="#B30000"/>
</linearGradient>
<linearGradient id="paint9_linear_83_629" x1="44.4634" y1="8.43342" x2="79.9205" y2="8.43342" gradientUnits="userSpaceOnUse">
<stop stop-color="#0046F9"/>
<stop offset="0.197917" stop-color="#16DBF6"/>
<stop offset="0.401042" stop-color="#FFE713"/>
<stop offset="0.604167" stop-color="#FF7917"/>
<stop offset="0.802083" stop-color="#FB0000"/>
<stop offset="1" stop-color="#B30000"/>
</linearGradient>
<linearGradient id="paint10_linear_83_629" x1="44.4634" y1="8.43363" x2="79.9205" y2="8.43363" gradientUnits="userSpaceOnUse">
<stop stop-color="#0046F9"/>
<stop offset="0.197917" stop-color="#16DBF6"/>
<stop offset="0.401042" stop-color="#FFE713"/>
<stop offset="0.604167" stop-color="#FF7917"/>
<stop offset="0.802083" stop-color="#FB0000"/>
<stop offset="1" stop-color="#B30000"/>
</linearGradient>
<linearGradient id="paint11_linear_83_629" x1="44.4633" y1="8.43379" x2="79.9204" y2="8.43379" gradientUnits="userSpaceOnUse">
<stop stop-color="#0046F9"/>
<stop offset="0.197917" stop-color="#16DBF6"/>
<stop offset="0.401042" stop-color="#FFE713"/>
<stop offset="0.604167" stop-color="#FF7917"/>
<stop offset="0.802083" stop-color="#FB0000"/>
<stop offset="1" stop-color="#B30000"/>
</linearGradient>
<linearGradient id="paint12_linear_83_629" x1="44.4634" y1="8.43351" x2="79.9205" y2="8.43351" gradientUnits="userSpaceOnUse">
<stop stop-color="#0046F9"/>
<stop offset="0.197917" stop-color="#16DBF6"/>
<stop offset="0.401042" stop-color="#FFE713"/>
<stop offset="0.604167" stop-color="#FF7917"/>
<stop offset="0.802083" stop-color="#FB0000"/>
<stop offset="1" stop-color="#B30000"/>
</linearGradient>
<linearGradient id="paint13_linear_83_629" x1="44.4633" y1="8.43388" x2="79.9205" y2="8.43388" gradientUnits="userSpaceOnUse">
<stop stop-color="#0046F9"/>
<stop offset="0.197917" stop-color="#16DBF6"/>
<stop offset="0.401042" stop-color="#FFE713"/>
<stop offset="0.604167" stop-color="#FF7917"/>
<stop offset="0.802083" stop-color="#FB0000"/>
<stop offset="1" stop-color="#B30000"/>
</linearGradient>
<linearGradient id="paint14_linear_83_629" x1="44.4633" y1="8.43366" x2="79.9205" y2="8.43366" gradientUnits="userSpaceOnUse">
<stop stop-color="#0046F9"/>
<stop offset="0.197917" stop-color="#16DBF6"/>
<stop offset="0.401042" stop-color="#FFE713"/>
<stop offset="0.604167" stop-color="#FF7917"/>
<stop offset="0.802083" stop-color="#FB0000"/>
<stop offset="1" stop-color="#B30000"/>
</linearGradient>
<linearGradient id="paint15_linear_83_629" x1="44.4634" y1="8.43354" x2="79.9205" y2="8.43354" gradientUnits="userSpaceOnUse">
<stop stop-color="#0046F9"/>
<stop offset="0.197917" stop-color="#16DBF6"/>
<stop offset="0.401042" stop-color="#FFE713"/>
<stop offset="0.604167" stop-color="#FF7917"/>
<stop offset="0.802083" stop-color="#FB0000"/>
<stop offset="1" stop-color="#B30000"/>
</linearGradient>
<linearGradient id="paint16_linear_83_629" x1="44.4634" y1="8.4339" x2="79.9205" y2="8.4339" gradientUnits="userSpaceOnUse">
<stop stop-color="#0046F9"/>
<stop offset="0.197917" stop-color="#16DBF6"/>
<stop offset="0.401042" stop-color="#FFE713"/>
<stop offset="0.604167" stop-color="#FF7917"/>
<stop offset="0.802083" stop-color="#FB0000"/>
<stop offset="1" stop-color="#B30000"/>
</linearGradient>
<clipPath id="clip0_83_629">
<rect width="81" height="40" fill="white"/>
</clipPath>
</defs>
</svg>
