<svg width="41" height="40" viewBox="0 0 41 40" fill="none" xmlns="http://www.w3.org/2000/svg">
<path d="M1.6604 24.4081C1.6604 22.5247 2.03286 20.6597 2.75655 18.9198C3.48025 17.1797 4.54094 15.5987 5.87815 14.267C7.21534 12.9352 8.80276 11.8788 10.5499 11.1581C12.297 10.4374 14.1696 10.0664 16.0607 10.0664V24.4081H1.6604Z" fill="#442781"/>
<path d="M1.6604 24.4082C1.6604 26.2916 2.03286 28.1565 2.75655 29.8966C3.48025 31.6366 4.54094 33.2176 5.87815 34.5494C7.21534 35.8811 8.80276 36.9375 10.5499 37.6583C12.297 38.379 14.1696 38.75 16.0607 38.75V24.4082H1.6604Z" fill="#61459C"/>
<path d="M30.4608 24.4082C30.4608 26.2916 30.0886 28.1565 29.365 29.8966C28.6413 31.6366 27.5806 33.2176 26.2432 34.5494C24.906 35.8811 23.3186 36.9375 21.5714 37.6583C19.8244 38.379 17.9518 38.75 16.0607 38.75V24.4082H30.4608Z" fill="#A992DB"/>
<path d="M39.3396 12.0183C39.3396 17.9655 34.4986 22.7867 28.5272 22.7867H17.715V12.0183C17.715 6.07117 22.5559 1.25 28.5272 1.25C34.4986 1.25 39.3396 6.07117 39.3396 12.0183Z" fill="#FF7917"/>
</svg>
