<svg width="156" height="40" viewBox="0 0 156 40" fill="none" xmlns="http://www.w3.org/2000/svg">
<path d="M33.9294 29.4416L33.9315 29.4441L29.2899 33.5599C28.3382 34.4247 27.1077 34.9146 25.8249 34.9387L25.8142 34.9389H9.90787C9.31905 34.9639 8.73229 34.8526 8.19301 34.6133C7.6442 34.37 7.15936 34.0009 6.77754 33.5352C6.3957 33.0697 6.12762 32.5209 5.99438 31.9329C5.86362 31.3548 5.86645 30.7537 6.00329 30.1768L7.22794 23.8751C7.33688 23.3266 7.6248 22.83 8.04622 22.4646L8.10627 22.4125C7.97591 22.2137 7.88055 21.9933 7.82464 21.7612C7.75047 21.4533 7.74788 21.1329 7.8162 20.8248L9.04327 14.5113L9.04517 14.5023C9.28397 13.3694 9.88548 12.3466 10.7576 11.5905L15.0073 7.82216C15.2039 7.59518 15.4198 7.38374 15.6533 7.19044C16.5836 6.42037 17.7411 5.98185 18.9453 5.94303L18.9653 5.94238L34.8909 5.98845C35.4791 5.96374 36.0651 6.07519 36.6038 6.3141C37.1527 6.55754 37.6375 6.92667 38.0193 7.39222C38.4011 7.8577 38.6692 8.4065 38.8024 8.99481C38.9334 9.57301 38.9303 10.1736 38.7937 10.7502L35.7517 26.4432L35.7474 26.4623C35.4802 27.6285 34.8416 28.6744 33.9294 29.4416Z" fill="#80948C"/>
<path d="M34.1673 6.98957C34.5723 6.96773 34.9765 7.04749 35.3475 7.22232C35.7186 7.39714 36.0462 7.6622 36.3043 7.99644C36.5622 8.33068 36.7435 8.72474 36.8336 9.14717C36.9236 9.56961 36.9199 10.0087 36.8227 10.4293L33.8907 26.4992C33.6847 27.454 33.1889 28.3092 32.4804 28.9314C31.772 29.5536 30.8907 29.9078 29.974 29.9389H14.6335C14.2284 29.9605 13.8242 29.8808 13.453 29.706C13.0818 29.5311 12.754 29.2661 12.4956 28.9321C12.2372 28.598 12.0553 28.2041 11.9645 27.7818C11.8738 27.3594 11.8765 26.9202 11.9726 26.4992L13.1565 19.9979C13.2259 19.6806 13.3916 19.3968 13.6277 19.1905C13.8638 18.9842 14.1571 18.867 14.4621 18.8573C17.2613 18.9637 19.9499 19.1883 22.4559 20.1516L23.0091 23.8691C23.0227 23.9589 23.067 24.0401 23.1334 24.0968C23.1999 24.1537 23.2837 24.1821 23.3687 24.1765C23.4663 24.1747 23.5618 24.1454 23.6453 24.0914C23.7289 24.0374 23.7976 23.9607 23.8445 23.8691L25.7364 20.1516L29.5204 18.875C29.6119 18.8437 29.6943 18.7876 29.7593 18.7119C29.8243 18.6362 29.8697 18.5438 29.891 18.4437C29.9127 18.3551 29.9025 18.2611 29.8625 18.1801C29.8227 18.0992 29.7559 18.0372 29.6752 18.0063L26.356 16.7355L25.8028 13.0181C25.7893 12.9278 25.7452 12.846 25.6789 12.7883C25.6126 12.7305 25.5287 12.7008 25.4432 12.7049C25.345 12.7072 25.2492 12.7375 25.1656 12.7926C25.082 12.8476 25.0136 12.9254 24.9675 13.0181L23.0755 16.7355C20.332 17.5763 17.4932 18.0099 14.6391 18.024C14.5021 18.0365 14.3643 18.0139 14.237 17.9584C14.1097 17.9029 13.9966 17.8159 13.9069 17.7045C13.8173 17.5932 13.7537 17.4606 13.7213 17.3179C13.6889 17.1751 13.6887 17.0261 13.7207 16.8832L14.9046 10.382C15.1094 9.4277 15.6042 8.57268 16.3118 7.95041C17.0193 7.32814 17.8998 6.97376 18.8158 6.94238L34.1673 6.98957Z" fill="#86EE02"/>
<path d="M116.398 25.4707C114.069 25.4707 112.416 24.4947 111.895 22.6534L114.941 21.2356C115.157 21.9905 115.788 22.3404 116.935 22.3404C117.826 22.3404 118.547 22.0642 118.648 21.4749C118.775 20.7384 118.066 20.6279 116.984 20.4622C115.193 20.186 112.623 19.4678 113.132 16.5033C113.524 14.22 115.845 12.4707 118.574 12.4707C120.722 12.4707 122.374 13.4466 122.895 15.288L119.849 16.7058C119.607 16.0982 119.038 15.601 117.891 15.601C117.09 15.601 116.609 15.8588 116.521 16.3744C116.401 17.0741 117.164 17.2951 118.333 17.4792C120.106 17.7554 122.533 18.4551 122.022 21.4381C121.63 23.7214 119.128 25.4707 116.398 25.4707Z" fill="#80948C"/>
<path d="M134.895 25.4144H138.402L141.159 16.4664L141.857 23.8762C141.952 24.9454 142.794 25.4707 143.82 25.4707C144.864 25.4707 145.835 24.9267 146.347 23.8011L149.605 16.4851L149.071 25.4144H152.559L152.894 14.8343C152.936 13.2961 152.071 12.4707 150.597 12.4707C149.254 12.4707 148.01 13.0897 147.412 14.4967L144.565 21.1561L144.009 14.4404C143.897 13.0335 142.893 12.4707 141.588 12.4707C140.077 12.4707 138.893 13.2774 138.392 14.7781L134.895 25.4144Z" fill="#80948C"/>
<path d="M124.037 19.9336C123.431 23.427 124.735 25.4707 128.436 25.4707C132.119 25.4707 134.167 23.427 134.773 19.9336L135.895 13.4707H132.665L131.559 19.8462C131.244 21.6629 130.415 22.4139 128.966 22.4139C127.535 22.4139 126.967 21.6629 127.282 19.8462L128.389 13.4707H125.159L124.037 19.9336Z" fill="#80948C"/>
<path fill-rule="evenodd" clip-rule="evenodd" d="M99.895 25.4707L103.577 25.4529L104.143 22.5374H105.813C109.71 22.5374 112.248 20.8307 112.808 17.9507C113.349 15.1596 111.351 13.4707 107.375 13.4707H102.226L99.895 25.4707ZM105.317 16.4929H106.887C108.478 16.4929 109.213 17.0085 109.03 17.9507C108.833 18.9641 107.951 19.5152 106.301 19.5152H104.73L105.317 16.4929Z" fill="#80948C"/>
<path d="M96.8343 13.4707H99.895L97.9557 25.4707H94.895L96.8343 13.4707Z" fill="#80948C"/>
<path fill-rule="evenodd" clip-rule="evenodd" d="M81.0072 18.9707C80.3318 22.6823 82.7654 25.4707 86.7124 25.4707C90.6593 25.4707 94.1075 22.6823 94.7829 18.9707C95.4582 15.2591 93.0246 12.4707 89.0777 12.4707C85.1307 12.4707 81.6825 15.2591 81.0072 18.9707ZM91.1068 18.9707C90.7706 20.8173 89.1188 22.2392 87.3001 22.2392C85.4814 22.2392 84.3471 20.8173 84.6833 18.9707C85.0194 17.1241 86.6707 15.7022 88.4894 15.7022C90.3081 15.7022 91.4429 17.1241 91.1068 18.9707Z" fill="#80948C"/>
<path d="M74.202 25.4707C70.6337 25.4707 68.3887 22.6085 68.9931 18.9707C69.5974 15.3329 72.7579 12.4707 76.3616 12.4707C78.4815 12.4707 80.3761 13.6156 80.895 15.7022L77.9697 17.2534C77.6313 16.3116 77.0644 15.6838 75.6865 15.6838C74.0083 15.6838 72.6657 17.0687 72.3403 19.0261C71.9998 21.0758 72.9125 22.3869 74.7143 22.3869C75.6683 22.3869 76.2843 22.2946 76.8761 21.8145L77.1499 20.097L74.0922 18.6628H80.5489L80.4578 19.2477H80.465L80.3639 19.8545L80.3579 19.8946L80.3573 19.8949L79.8511 22.9409C78.6874 24.4181 76.6045 25.4707 74.202 25.4707Z" fill="#80948C"/>
<path fill-rule="evenodd" clip-rule="evenodd" d="M55.0072 18.9707C54.3319 22.6823 56.7654 25.4707 60.7124 25.4707C64.6593 25.4707 68.1076 22.6823 68.7829 18.9707C69.4582 15.2591 67.0246 12.4707 63.0777 12.4707C59.1307 12.4707 55.6825 15.2591 55.0072 18.9707ZM65.1068 18.9707C64.7708 20.8173 63.1191 22.2392 61.3004 22.2392C59.4817 22.2392 58.3473 20.8173 58.6833 18.9707C59.0193 17.1241 60.671 15.7022 62.4897 15.7022C64.3084 15.7022 65.4428 17.1241 65.1068 18.9707Z" fill="#80948C"/>
<path d="M51.0277 13.4707L49.4151 22.4485H54.895L54.3522 25.4707H48.4126C46.3162 25.4707 45.6619 24.4041 45.9653 22.7152L47.6257 13.4707H51.0277Z" fill="#80948C"/>
</svg>
