<svg width="167" height="40" viewBox="0 0 167 40" fill="none" xmlns="http://www.w3.org/2000/svg">
<g clip-path="url(#clip0_83_597)">
<path d="M50.9449 27.4519H62.686V23.9397H55.118V10.7104H50.9449V27.4519Z" fill="#E3E3E3"/>
<path d="M69.6421 25.1104C67.9682 25.1104 67.0959 23.6587 67.0959 21.4811C67.0959 19.3035 67.9682 17.8284 69.6421 17.8284C71.3161 17.8284 72.212 19.3035 72.212 21.4811C72.212 23.6587 71.3161 25.1104 69.6421 25.1104ZM69.6657 27.8265C73.5558 27.8265 76.1021 25.087 76.1021 21.4811C76.1021 17.8753 73.5558 15.1357 69.6657 15.1357C65.7992 15.1357 63.2057 17.8753 63.2057 21.4811C63.2057 25.087 65.7992 27.8265 69.6657 27.8265Z" fill="#E3E3E3"/>
<path d="M82.8356 31.5962C84.6275 31.5962 86.2071 31.1982 87.268 30.2616C88.2347 29.3952 88.8712 28.084 88.8712 26.2811V15.4635H85.1933V16.7513H85.1461C84.4388 15.7445 83.3543 15.1123 81.7511 15.1123C78.7569 15.1123 76.6822 17.5943 76.6822 21.1065C76.6822 24.7825 79.2049 26.7962 81.9162 26.7962C83.3779 26.7962 84.2974 26.2108 85.0047 25.4147H85.099V26.6089C85.099 28.0606 84.4153 28.9035 82.7885 28.9035C81.5154 28.9035 80.8788 28.365 80.6666 27.7328H76.9415C77.3188 30.2382 79.5114 31.5962 82.8356 31.5962ZM82.8121 23.963C81.3739 23.963 80.4309 22.7923 80.4309 20.9894C80.4309 19.163 81.3739 17.9923 82.8121 17.9923C84.4153 17.9923 85.264 19.3504 85.264 20.966C85.264 22.6518 84.486 23.963 82.8121 23.963Z" fill="#E3E3E3"/>
<path d="M96.4337 25.1104C94.7598 25.1104 93.8874 23.6587 93.8874 21.4811C93.8874 19.3035 94.7598 17.8284 96.4337 17.8284C98.1076 17.8284 99.0035 19.3035 99.0035 21.4811C99.0035 23.6587 98.1076 25.1104 96.4337 25.1104ZM96.4573 27.8265C100.347 27.8265 102.894 25.087 102.894 21.4811C102.894 17.8753 100.347 15.1357 96.4573 15.1357C92.5907 15.1357 89.9973 17.8753 89.9973 21.4811C89.9973 25.087 92.5907 27.8265 96.4573 27.8265Z" fill="#E3E3E3"/>
<path d="M104.015 27.4519H107.858V15.4636H104.015V27.4519ZM104.015 13.8012H107.858V10.7104H104.015V13.8012Z" fill="#E3E3E3"/>
<path d="M109.526 31.4089H113.369V26.2108H113.417C114.171 27.2177 115.279 27.8265 116.835 27.8265C119.994 27.8265 122.093 25.3445 122.093 21.4577C122.093 17.8518 120.136 15.1123 116.929 15.1123C115.279 15.1123 114.1 15.8382 113.275 16.9152H113.204V15.4635H109.526V31.4089ZM115.845 24.8762C114.195 24.8762 113.252 23.5416 113.252 21.5982C113.252 19.6547 114.1 18.1796 115.774 18.1796C117.425 18.1796 118.203 19.5377 118.203 21.5982C118.203 23.6352 117.307 24.8762 115.845 24.8762Z" fill="#E3E3E3"/>
<path d="M128.349 27.8265C131.509 27.8265 133.843 26.4684 133.843 23.846C133.843 20.7786 131.344 20.2401 129.222 19.8889C127.689 19.6079 126.322 19.4908 126.322 18.6479C126.322 17.8986 127.053 17.5474 127.996 17.5474C129.057 17.5474 129.787 17.8752 129.929 18.9523H133.465C133.277 16.5874 131.438 15.1123 128.019 15.1123C125.166 15.1123 122.809 16.4235 122.809 18.9523C122.809 21.7621 125.049 22.324 127.147 22.6752C128.75 22.9562 130.212 23.0733 130.212 24.1504C130.212 24.923 129.481 25.3445 128.326 25.3445C127.053 25.3445 126.251 24.7591 126.11 23.565H122.479C122.597 26.2108 124.813 27.8265 128.349 27.8265Z" fill="#E3E3E3"/>
<path d="M139.063 27.8029C140.737 27.8029 141.798 27.1473 142.67 25.9765H142.741V27.4517H146.419V15.4634H142.576V22.16C142.576 23.5883 141.774 24.5717 140.454 24.5717C139.228 24.5717 138.638 23.8458 138.638 22.5346V15.4634H134.819V23.3307C134.819 26 136.281 27.8029 139.063 27.8029Z" fill="#E3E3E3"/>
<path d="M148.09 27.4518H151.933V20.7318C151.933 19.3035 152.64 18.2967 153.842 18.2967C154.998 18.2967 155.54 19.046 155.54 20.3338V27.4518H159.383V20.7318C159.383 19.3035 160.067 18.2967 161.293 18.2967C162.448 18.2967 162.99 19.046 162.99 20.3338V27.4518H166.833V19.6547C166.833 16.9621 165.466 15.1123 162.731 15.1123C161.175 15.1123 159.878 15.7679 158.935 17.2196H158.888C158.275 15.9318 157.072 15.1123 155.493 15.1123C153.748 15.1123 152.593 15.9318 151.838 17.1728H151.768V15.4635H148.09V27.4518Z" fill="#E3E3E3"/>
<path fill-rule="evenodd" clip-rule="evenodd" d="M20.3191 39.1591C31.1698 39.1591 39.9661 30.4232 39.9661 19.6469C39.9661 8.87068 31.1698 0.134766 20.3191 0.134766C9.46827 0.134766 0.671997 8.87068 0.671997 19.6469C0.671997 30.4232 9.46827 39.1591 20.3191 39.1591ZM26.4483 9.22437C26.7466 8.17189 25.7182 7.54953 24.779 8.21408L11.6676 17.4904C10.649 18.2111 10.8092 19.6469 11.9083 19.6469H15.3608V19.6204H22.0898L16.607 21.5417L14.1899 30.0696C13.8915 31.1221 14.9199 31.7444 15.8592 31.0798L28.9706 21.8035C29.9892 21.0828 29.8288 19.6469 28.7299 19.6469H23.4941L26.4483 9.22437Z" fill="#F15757"/>
</g>
<defs>
<clipPath id="clip0_83_597">
<rect width="167" height="40" fill="white"/>
</clipPath>
</defs>
</svg>
