<svg width="41" height="40" viewBox="0 0 41 40" fill="none" xmlns="http://www.w3.org/2000/svg">
<path d="M20.5 10.625C20.5 15.8027 16.2855 20 11.0867 20H1.67346V10.625C1.67346 5.44732 5.88792 1.25 11.0867 1.25C16.2855 1.25 20.5 5.44732 20.5 10.625Z" fill="#17CF97"/>
<path d="M20.5 29.375C20.5 24.1973 24.7145 20 29.9133 20H39.3265V29.375C39.3265 34.5527 35.1121 38.75 29.9133 38.75C24.7145 38.75 20.5 34.5527 20.5 29.375Z" fill="#17CF97"/>
<path d="M1.67346 29.375C1.67346 34.5527 5.88792 38.75 11.0867 38.75H20.5V29.375C20.5 24.1973 16.2855 20 11.0867 20C5.88792 20 1.67346 24.1973 1.67346 29.375Z" fill="#17CF97"/>
<path d="M39.3265 10.625C39.3265 5.44732 35.1121 1.25 29.9133 1.25H20.5V10.625C20.5 15.8027 24.7145 20 29.9133 20C35.1121 20 39.3265 15.8027 39.3265 10.625Z" fill="#17CF97"/>
</svg>
